solid 
   facet normal 0.000000e+00 1.000000e+00 0.000000e+00
      outer loop
         vertex -1.850000e+01 7.775000e+00 1.000000e+00
         vertex -1.850000e+01 7.775000e+00 7.000000e+00
         vertex -1.590954e+01 7.775000e+00 4.513030e+00
      endloop
   endfacet
   facet normal -0.000000e+00 1.000000e+00 0.000000e+00
      outer loop
         vertex -1.850000e+01 7.775000e+00 7.000000e+00
         vertex -1.836603e+01 7.775000e+00 7.500000e+00
         vertex -1.800000e+01 7.775000e+00 7.866025e+00
      endloop
   endfacet
   facet normal 0.000000e+00 1.000000e+00 0.000000e+00
      outer loop
         vertex -1.800000e+01 7.775000e+00 7.866025e+00
         vertex -1.750000e+01 7.775000e+00 8.000000e+00
         vertex -1.850000e+01 7.775000e+00 7.000000e+00
      endloop
   endfacet
   facet normal 0.000000e+00 1.000000e+00 0.000000e+00
      outer loop
         vertex -1.750000e+01 7.775000e+00 8.000000e+00
         vertex -6.717515e+00 7.775000e+00 8.000000e+00
         vertex -1.423953e+01 7.775000e+00 5.477211e+00
      endloop
   endfacet
   facet normal 0.000000e+00 1.000000e+00 -0.000000e+00
      outer loop
         vertex -6.717515e+00 7.775000e+00 8.000000e+00
         vertex -6.717515e+00 7.775000e+00 0.000000e+00
         vertex -1.300000e+01 7.775000e+00 4.000000e+00
      endloop
   endfacet
   facet normal 0.000000e+00 1.000000e+00 0.000000e+00
      outer loop
         vertex -6.717515e+00 7.775000e+00 0.000000e+00
         vertex -1.750000e+01 7.775000e+00 0.000000e+00
         vertex -1.423953e+01 7.775000e+00 2.522788e+00
      endloop
   endfacet
   facet normal -0.000000e+00 1.000000e+00 -0.000000e+00
      outer loop
         vertex -1.750000e+01 7.775000e+00 0.000000e+00
         vertex -1.800000e+01 7.775000e+00 1.339746e-01
         vertex -1.850000e+01 7.775000e+00 1.000000e+00
      endloop
   endfacet
   facet normal -0.000000e+00 1.000000e+00 -0.000000e+00
      outer loop
         vertex -1.800000e+01 7.775000e+00 1.339746e-01
         vertex -1.836603e+01 7.775000e+00 5.000000e-01
         vertex -1.850000e+01 7.775000e+00 1.000000e+00
      endloop
   endfacet
   facet normal 0.000000e+00 1.000000e+00 0.000000e+00
      outer loop
         vertex -1.335093e+01 7.775000e+00 3.035819e+00
         vertex -1.300000e+01 7.775000e+00 4.000000e+00
         vertex -6.717515e+00 7.775000e+00 0.000000e+00
      endloop
   endfacet
   facet normal -0.000000e+00 1.000000e+00 0.000000e+00
      outer loop
         vertex -1.300000e+01 7.775000e+00 4.000000e+00
         vertex -1.335093e+01 7.775000e+00 4.964181e+00
         vertex -6.717515e+00 7.775000e+00 8.000000e+00
      endloop
   endfacet
   facet normal -0.000000e+00 1.000000e+00 0.000000e+00
      outer loop
         vertex -1.335093e+01 7.775000e+00 4.964181e+00
         vertex -1.423953e+01 7.775000e+00 5.477211e+00
         vertex -6.717515e+00 7.775000e+00 8.000000e+00
      endloop
   endfacet
   facet normal 0.000000e+00 1.000000e+00 -0.000000e+00
      outer loop
         vertex -1.423953e+01 7.775000e+00 5.477211e+00
         vertex -1.525000e+01 7.775000e+00 5.299038e+00
         vertex -1.750000e+01 7.775000e+00 8.000000e+00
      endloop
   endfacet
   facet normal 0.000000e+00 1.000000e+00 -0.000000e+00
      outer loop
         vertex -1.525000e+01 7.775000e+00 5.299038e+00
         vertex -1.590954e+01 7.775000e+00 4.513030e+00
         vertex -1.850000e+01 7.775000e+00 7.000000e+00
      endloop
   endfacet
   facet normal 0.000000e+00 1.000000e+00 -0.000000e+00
      outer loop
         vertex -1.590954e+01 7.775000e+00 4.513030e+00
         vertex -1.590954e+01 7.775000e+00 3.486970e+00
         vertex -1.850000e+01 7.775000e+00 1.000000e+00
      endloop
   endfacet
   facet normal 0.000000e+00 1.000000e+00 0.000000e+00
      outer loop
         vertex -1.590954e+01 7.775000e+00 3.486970e+00
         vertex -1.525000e+01 7.775000e+00 2.700962e+00
         vertex -1.850000e+01 7.775000e+00 1.000000e+00
      endloop
   endfacet
   facet normal 0.000000e+00 1.000000e+00 0.000000e+00
      outer loop
         vertex -1.525000e+01 7.775000e+00 2.700962e+00
         vertex -1.423953e+01 7.775000e+00 2.522788e+00
         vertex -1.750000e+01 7.775000e+00 0.000000e+00
      endloop
   endfacet
   facet normal 0.000000e+00 1.000000e+00 0.000000e+00
      outer loop
         vertex -1.423953e+01 7.775000e+00 2.522788e+00
         vertex -1.335093e+01 7.775000e+00 3.035819e+00
         vertex -6.717515e+00 7.775000e+00 0.000000e+00
      endloop
   endfacet
   facet normal 0.000000e+00 1.000000e+00 0.000000e+00
      outer loop
         vertex -1.850000e+01 7.775000e+00 7.000000e+00
         vertex -1.750000e+01 7.775000e+00 8.000000e+00
         vertex -1.525000e+01 7.775000e+00 5.299038e+00
      endloop
   endfacet
   facet normal -0.000000e+00 1.000000e+00 0.000000e+00
      outer loop
         vertex -1.750000e+01 7.775000e+00 0.000000e+00
         vertex -1.850000e+01 7.775000e+00 1.000000e+00
         vertex -1.525000e+01 7.775000e+00 2.700962e+00
      endloop
   endfacet
   facet normal 0.000000e+00 1.000000e+00 -0.000000e+00
      outer loop
         vertex 1.850000e+01 7.775000e+00 7.000000e+00
         vertex 1.850000e+01 7.775000e+00 1.000000e+00
         vertex 1.600000e+01 7.775000e+00 4.000000e+00
      endloop
   endfacet
   facet normal 0.000000e+00 1.000000e+00 -0.000000e+00
      outer loop
         vertex 1.850000e+01 7.775000e+00 1.000000e+00
         vertex 1.820711e+01 7.775000e+00 2.928932e-01
         vertex 1.750000e+01 7.775000e+00 -5.921190e-16
      endloop
   endfacet
   facet normal -0.000000e+00 1.000000e+00 0.000000e+00
      outer loop
         vertex 1.750000e+01 7.775000e+00 -5.921190e-16
         vertex 6.717515e+00 7.775000e+00 0.000000e+00
         vertex 1.375000e+01 7.775000e+00 2.700962e+00
      endloop
   endfacet
   facet normal 0.000000e+00 1.000000e+00 0.000000e+00
      outer loop
         vertex 6.717515e+00 7.775000e+00 0.000000e+00
         vertex 6.717515e+00 7.775000e+00 8.000000e+00
         vertex 1.309046e+01 7.775000e+00 4.513030e+00
      endloop
   endfacet
   facet normal 0.000000e+00 1.000000e+00 0.000000e+00
      outer loop
         vertex 6.717515e+00 7.775000e+00 8.000000e+00
         vertex 1.750000e+01 7.775000e+00 8.000000e+00
         vertex 1.375000e+01 7.775000e+00 5.299038e+00
      endloop
   endfacet
   facet normal 0.000000e+00 1.000000e+00 0.000000e+00
      outer loop
         vertex 1.750000e+01 7.775000e+00 8.000000e+00
         vertex 1.820711e+01 7.775000e+00 7.707107e+00
         vertex 1.850000e+01 7.775000e+00 7.000000e+00
      endloop
   endfacet
   facet normal 0.000000e+00 1.000000e+00 0.000000e+00
      outer loop
         vertex 1.564907e+01 7.775000e+00 3.035819e+00
         vertex 1.600000e+01 7.775000e+00 4.000000e+00
         vertex 1.850000e+01 7.775000e+00 1.000000e+00
      endloop
   endfacet
   facet normal -0.000000e+00 1.000000e+00 0.000000e+00
      outer loop
         vertex 1.600000e+01 7.775000e+00 4.000000e+00
         vertex 1.564907e+01 7.775000e+00 4.964181e+00
         vertex 1.850000e+01 7.775000e+00 7.000000e+00
      endloop
   endfacet
   facet normal -0.000000e+00 1.000000e+00 0.000000e+00
      outer loop
         vertex 1.564907e+01 7.775000e+00 4.964181e+00
         vertex 1.476047e+01 7.775000e+00 5.477211e+00
         vertex 1.750000e+01 7.775000e+00 8.000000e+00
      endloop
   endfacet
   facet normal 0.000000e+00 1.000000e+00 0.000000e+00
      outer loop
         vertex 1.476047e+01 7.775000e+00 5.477211e+00
         vertex 1.375000e+01 7.775000e+00 5.299038e+00
         vertex 1.750000e+01 7.775000e+00 8.000000e+00
      endloop
   endfacet
   facet normal 0.000000e+00 1.000000e+00 -0.000000e+00
      outer loop
         vertex 1.375000e+01 7.775000e+00 5.299038e+00
         vertex 1.309046e+01 7.775000e+00 4.513030e+00
         vertex 6.717515e+00 7.775000e+00 8.000000e+00
      endloop
   endfacet
   facet normal 0.000000e+00 1.000000e+00 -0.000000e+00
      outer loop
         vertex 1.309046e+01 7.775000e+00 4.513030e+00
         vertex 1.309046e+01 7.775000e+00 3.486970e+00
         vertex 6.717515e+00 7.775000e+00 0.000000e+00
      endloop
   endfacet
   facet normal 0.000000e+00 1.000000e+00 0.000000e+00
      outer loop
         vertex 1.309046e+01 7.775000e+00 3.486970e+00
         vertex 1.375000e+01 7.775000e+00 2.700962e+00
         vertex 6.717515e+00 7.775000e+00 0.000000e+00
      endloop
   endfacet
   facet normal 0.000000e+00 1.000000e+00 0.000000e+00
      outer loop
         vertex 1.375000e+01 7.775000e+00 2.700962e+00
         vertex 1.476047e+01 7.775000e+00 2.522788e+00
         vertex 1.750000e+01 7.775000e+00 -5.921190e-16
      endloop
   endfacet
   facet normal 0.000000e+00 1.000000e+00 0.000000e+00
      outer loop
         vertex 1.476047e+01 7.775000e+00 2.522788e+00
         vertex 1.564907e+01 7.775000e+00 3.035819e+00
         vertex 1.750000e+01 7.775000e+00 -5.921190e-16
      endloop
   endfacet
   facet normal 0.000000e+00 1.000000e+00 -0.000000e+00
      outer loop
         vertex 1.850000e+01 7.775000e+00 1.000000e+00
         vertex 1.750000e+01 7.775000e+00 -5.921190e-16
         vertex 1.564907e+01 7.775000e+00 3.035819e+00
      endloop
   endfacet
   facet normal 0.000000e+00 1.000000e+00 0.000000e+00
      outer loop
         vertex 1.750000e+01 7.775000e+00 8.000000e+00
         vertex 1.850000e+01 7.775000e+00 7.000000e+00
         vertex 1.564907e+01 7.775000e+00 4.964181e+00
      endloop
   endfacet
   facet normal -9.396927e-01 0.000000e+00 3.420199e-01
      outer loop
         vertex -1.335093e+01 7.775000e+00 3.035819e+00
         vertex -1.335093e+01 -7.225000e+00 3.035819e+00
         vertex -1.300000e+01 -7.225000e+00 4.000000e+00
      endloop
   endfacet
   facet normal -9.396927e-01 0.000000e+00 3.420199e-01
      outer loop
         vertex -1.300000e+01 7.775000e+00 4.000000e+00
         vertex -1.335093e+01 7.775000e+00 3.035819e+00
         vertex -1.300000e+01 -7.225000e+00 4.000000e+00
      endloop
   endfacet
   facet normal -5.000000e-01 0.000000e+00 8.660254e-01
      outer loop
         vertex -1.423953e+01 7.775000e+00 2.522788e+00
         vertex -1.423953e+01 -7.225000e+00 2.522788e+00
         vertex -1.335093e+01 -7.225000e+00 3.035819e+00
      endloop
   endfacet
   facet normal -5.000000e-01 0.000000e+00 8.660254e-01
      outer loop
         vertex -1.335093e+01 7.775000e+00 3.035819e+00
         vertex -1.423953e+01 7.775000e+00 2.522788e+00
         vertex -1.335093e+01 -7.225000e+00 3.035819e+00
      endloop
   endfacet
   facet normal 1.736482e-01 -0.000000e+00 9.848078e-01
      outer loop
         vertex -1.525000e+01 7.775000e+00 2.700962e+00
         vertex -1.525000e+01 -7.225000e+00 2.700962e+00
         vertex -1.423953e+01 -7.225000e+00 2.522788e+00
      endloop
   endfacet
   facet normal 1.736482e-01 0.000000e+00 9.848078e-01
      outer loop
         vertex -1.423953e+01 7.775000e+00 2.522788e+00
         vertex -1.525000e+01 7.775000e+00 2.700962e+00
         vertex -1.423953e+01 -7.225000e+00 2.522788e+00
      endloop
   endfacet
   facet normal 7.660443e-01 -0.000000e+00 6.427878e-01
      outer loop
         vertex -1.590954e+01 7.775000e+00 3.486970e+00
         vertex -1.590954e+01 -7.225000e+00 3.486970e+00
         vertex -1.525000e+01 -7.225000e+00 2.700962e+00
      endloop
   endfacet
   facet normal 7.660443e-01 0.000000e+00 6.427878e-01
      outer loop
         vertex -1.525000e+01 7.775000e+00 2.700962e+00
         vertex -1.590954e+01 7.775000e+00 3.486970e+00
         vertex -1.525000e+01 -7.225000e+00 2.700962e+00
      endloop
   endfacet
   facet normal 1.000000e+00 -0.000000e+00 0.000000e+00
      outer loop
         vertex -1.590954e+01 7.775000e+00 4.513030e+00
         vertex -1.590954e+01 -7.225000e+00 4.513030e+00
         vertex -1.590954e+01 -7.225000e+00 3.486970e+00
      endloop
   endfacet
   facet normal 1.000000e+00 0.000000e+00 0.000000e+00
      outer loop
         vertex -1.590954e+01 7.775000e+00 3.486970e+00
         vertex -1.590954e+01 7.775000e+00 4.513030e+00
         vertex -1.590954e+01 -7.225000e+00 3.486970e+00
      endloop
   endfacet
   facet normal 7.660443e-01 0.000000e+00 -6.427878e-01
      outer loop
         vertex -1.525000e+01 7.775000e+00 5.299038e+00
         vertex -1.525000e+01 -7.225000e+00 5.299038e+00
         vertex -1.590954e+01 -7.225000e+00 4.513030e+00
      endloop
   endfacet
   facet normal 7.660443e-01 0.000000e+00 -6.427878e-01
      outer loop
         vertex -1.590954e+01 7.775000e+00 4.513030e+00
         vertex -1.525000e+01 7.775000e+00 5.299038e+00
         vertex -1.590954e+01 -7.225000e+00 4.513030e+00
      endloop
   endfacet
   facet normal 1.736482e-01 0.000000e+00 -9.848078e-01
      outer loop
         vertex -1.423953e+01 7.775000e+00 5.477211e+00
         vertex -1.423953e+01 -7.225000e+00 5.477211e+00
         vertex -1.525000e+01 -7.225000e+00 5.299038e+00
      endloop
   endfacet
   facet normal 1.736482e-01 0.000000e+00 -9.848078e-01
      outer loop
         vertex -1.525000e+01 7.775000e+00 5.299038e+00
         vertex -1.423953e+01 7.775000e+00 5.477211e+00
         vertex -1.525000e+01 -7.225000e+00 5.299038e+00
      endloop
   endfacet
   facet normal -4.999998e-01 0.000000e+00 -8.660255e-01
      outer loop
         vertex -1.335093e+01 7.775000e+00 4.964181e+00
         vertex -1.335093e+01 -7.225000e+00 4.964181e+00
         vertex -1.423953e+01 -7.225000e+00 5.477211e+00
      endloop
   endfacet
   facet normal -4.999998e-01 0.000000e+00 -8.660255e-01
      outer loop
         vertex -1.423953e+01 7.775000e+00 5.477211e+00
         vertex -1.335093e+01 7.775000e+00 4.964181e+00
         vertex -1.423953e+01 -7.225000e+00 5.477211e+00
      endloop
   endfacet
   facet normal -9.396927e-01 0.000000e+00 -3.420199e-01
      outer loop
         vertex -1.300000e+01 7.775000e+00 4.000000e+00
         vertex -1.300000e+01 -7.225000e+00 4.000000e+00
         vertex -1.335093e+01 -7.225000e+00 4.964181e+00
      endloop
   endfacet
   facet normal -9.396927e-01 0.000000e+00 -3.420199e-01
      outer loop
         vertex -1.335093e+01 7.775000e+00 4.964181e+00
         vertex -1.300000e+01 7.775000e+00 4.000000e+00
         vertex -1.335093e+01 -7.225000e+00 4.964181e+00
      endloop
   endfacet
   facet normal -9.396927e-01 0.000000e+00 3.420199e-01
      outer loop
         vertex 1.564907e+01 7.775000e+00 3.035819e+00
         vertex 1.564907e+01 -7.225000e+00 3.035819e+00
         vertex 1.600000e+01 -7.225000e+00 4.000000e+00
      endloop
   endfacet
   facet normal -9.396927e-01 0.000000e+00 3.420199e-01
      outer loop
         vertex 1.600000e+01 7.775000e+00 4.000000e+00
         vertex 1.564907e+01 7.775000e+00 3.035819e+00
         vertex 1.600000e+01 -7.225000e+00 4.000000e+00
      endloop
   endfacet
   facet normal -5.000000e-01 0.000000e+00 8.660254e-01
      outer loop
         vertex 1.476047e+01 7.775000e+00 2.522788e+00
         vertex 1.476047e+01 -7.225000e+00 2.522788e+00
         vertex 1.564907e+01 -7.225000e+00 3.035819e+00
      endloop
   endfacet
   facet normal -5.000000e-01 0.000000e+00 8.660254e-01
      outer loop
         vertex 1.564907e+01 7.775000e+00 3.035819e+00
         vertex 1.476047e+01 7.775000e+00 2.522788e+00
         vertex 1.564907e+01 -7.225000e+00 3.035819e+00
      endloop
   endfacet
   facet normal 1.736482e-01 -0.000000e+00 9.848078e-01
      outer loop
         vertex 1.375000e+01 7.775000e+00 2.700962e+00
         vertex 1.375000e+01 -7.225000e+00 2.700962e+00
         vertex 1.476047e+01 -7.225000e+00 2.522788e+00
      endloop
   endfacet
   facet normal 1.736482e-01 0.000000e+00 9.848078e-01
      outer loop
         vertex 1.476047e+01 7.775000e+00 2.522788e+00
         vertex 1.375000e+01 7.775000e+00 2.700962e+00
         vertex 1.476047e+01 -7.225000e+00 2.522788e+00
      endloop
   endfacet
   facet normal 7.660443e-01 -0.000000e+00 6.427878e-01
      outer loop
         vertex 1.309046e+01 7.775000e+00 3.486970e+00
         vertex 1.309046e+01 -7.225000e+00 3.486970e+00
         vertex 1.375000e+01 -7.225000e+00 2.700962e+00
      endloop
   endfacet
   facet normal 7.660443e-01 0.000000e+00 6.427878e-01
      outer loop
         vertex 1.375000e+01 7.775000e+00 2.700962e+00
         vertex 1.309046e+01 7.775000e+00 3.486970e+00
         vertex 1.375000e+01 -7.225000e+00 2.700962e+00
      endloop
   endfacet
   facet normal 1.000000e+00 -0.000000e+00 0.000000e+00
      outer loop
         vertex 1.309046e+01 7.775000e+00 4.513030e+00
         vertex 1.309046e+01 -7.225000e+00 4.513030e+00
         vertex 1.309046e+01 -7.225000e+00 3.486970e+00
      endloop
   endfacet
   facet normal 1.000000e+00 0.000000e+00 0.000000e+00
      outer loop
         vertex 1.309046e+01 7.775000e+00 3.486970e+00
         vertex 1.309046e+01 7.775000e+00 4.513030e+00
         vertex 1.309046e+01 -7.225000e+00 3.486970e+00
      endloop
   endfacet
   facet normal 7.660443e-01 0.000000e+00 -6.427878e-01
      outer loop
         vertex 1.375000e+01 7.775000e+00 5.299038e+00
         vertex 1.375000e+01 -7.225000e+00 5.299038e+00
         vertex 1.309046e+01 -7.225000e+00 4.513030e+00
      endloop
   endfacet
   facet normal 7.660443e-01 0.000000e+00 -6.427878e-01
      outer loop
         vertex 1.309046e+01 7.775000e+00 4.513030e+00
         vertex 1.375000e+01 7.775000e+00 5.299038e+00
         vertex 1.309046e+01 -7.225000e+00 4.513030e+00
      endloop
   endfacet
   facet normal 1.736482e-01 0.000000e+00 -9.848078e-01
      outer loop
         vertex 1.476047e+01 7.775000e+00 5.477211e+00
         vertex 1.476047e+01 -7.225000e+00 5.477211e+00
         vertex 1.375000e+01 -7.225000e+00 5.299038e+00
      endloop
   endfacet
   facet normal 1.736482e-01 0.000000e+00 -9.848078e-01
      outer loop
         vertex 1.375000e+01 7.775000e+00 5.299038e+00
         vertex 1.476047e+01 7.775000e+00 5.477211e+00
         vertex 1.375000e+01 -7.225000e+00 5.299038e+00
      endloop
   endfacet
   facet normal -4.999998e-01 0.000000e+00 -8.660255e-01
      outer loop
         vertex 1.564907e+01 7.775000e+00 4.964181e+00
         vertex 1.564907e+01 -7.225000e+00 4.964181e+00
         vertex 1.476047e+01 -7.225000e+00 5.477211e+00
      endloop
   endfacet
   facet normal -4.999998e-01 0.000000e+00 -8.660255e-01
      outer loop
         vertex 1.476047e+01 7.775000e+00 5.477211e+00
         vertex 1.564907e+01 7.775000e+00 4.964181e+00
         vertex 1.476047e+01 -7.225000e+00 5.477211e+00
      endloop
   endfacet
   facet normal -9.396927e-01 0.000000e+00 -3.420199e-01
      outer loop
         vertex 1.600000e+01 7.775000e+00 4.000000e+00
         vertex 1.600000e+01 -7.225000e+00 4.000000e+00
         vertex 1.564907e+01 -7.225000e+00 4.964181e+00
      endloop
   endfacet
   facet normal -9.396927e-01 0.000000e+00 -3.420199e-01
      outer loop
         vertex 1.564907e+01 7.775000e+00 4.964181e+00
         vertex 1.600000e+01 7.775000e+00 4.000000e+00
         vertex 1.564907e+01 -7.225000e+00 4.964181e+00
      endloop
   endfacet
   facet normal -5.491489e-17 -4.769942e-17 -1.000000e+00
      outer loop
         vertex 8.638548e+00 5.563373e+00 0.000000e+00
         vertex 6.717515e+00 7.775000e+00 0.000000e+00
         vertex 1.750000e+01 7.775000e+00 -5.921190e-16
      endloop
   endfacet
   facet normal -5.997118e-17 -2.744007e-17 -1.000000e+00
      outer loop
         vertex 1.750000e+01 7.775000e+00 -5.921190e-16
         vertex 9.857401e+00 2.899530e+00 0.000000e+00
         vertex 8.638548e+00 5.563373e+00 0.000000e+00
      endloop
   endfacet
   facet normal -7.095682e-17 -1.021941e-17 -1.000000e+00
      outer loop
         vertex 1.750000e+01 7.775000e+00 -5.921190e-16
         vertex 1.027500e+01 -3.922860e-15 0.000000e+00
         vertex 9.857401e+00 2.899530e+00 0.000000e+00
      endloop
   endfacet
   facet normal 0.000000e+00 0.000000e+00 -1.000000e+00
      outer loop
         vertex 1.750000e+01 -1.122500e+01 0.000000e+00
         vertex 9.857401e+00 -2.899530e+00 0.000000e+00
         vertex 1.027500e+01 -3.922860e-15 0.000000e+00
      endloop
   endfacet
   facet normal 0.000000e+00 0.000000e+00 -1.000000e+00
      outer loop
         vertex 1.750000e+01 -1.122500e+01 0.000000e+00
         vertex 8.638548e+00 -5.563373e+00 0.000000e+00
         vertex 9.857401e+00 -2.899530e+00 0.000000e+00
      endloop
   endfacet
   facet normal 0.000000e+00 0.000000e+00 -1.000000e+00
      outer loop
         vertex 1.750000e+01 -1.122500e+01 0.000000e+00
         vertex 6.717515e+00 -7.775000e+00 0.000000e+00
         vertex 8.638548e+00 -5.563373e+00 0.000000e+00
      endloop
   endfacet
   facet normal 0.000000e+00 -0.000000e+00 -1.000000e+00
      outer loop
         vertex -1.750000e+01 -1.122500e+01 0.000000e+00
         vertex -6.717515e+00 -7.775000e+00 0.000000e+00
         vertex 6.717515e+00 -7.775000e+00 0.000000e+00
      endloop
   endfacet
   facet normal 0.000000e+00 -0.000000e+00 -1.000000e+00
      outer loop
         vertex -1.750000e+01 -1.122500e+01 0.000000e+00
         vertex -8.638548e+00 -5.563373e+00 0.000000e+00
         vertex -6.717515e+00 -7.775000e+00 0.000000e+00
      endloop
   endfacet
   facet normal 0.000000e+00 -0.000000e+00 -1.000000e+00
      outer loop
         vertex -1.750000e+01 -1.122500e+01 0.000000e+00
         vertex -9.857401e+00 -2.899530e+00 0.000000e+00
         vertex -8.638548e+00 -5.563373e+00 0.000000e+00
      endloop
   endfacet
   facet normal 0.000000e+00 -0.000000e+00 -1.000000e+00
      outer loop
         vertex -1.750000e+01 -1.122500e+01 0.000000e+00
         vertex -1.027500e+01 1.073252e-15 0.000000e+00
         vertex -9.857401e+00 -2.899530e+00 0.000000e+00
      endloop
   endfacet
   facet normal -0.000000e+00 0.000000e+00 -1.000000e+00
      outer loop
         vertex -1.750000e+01 7.775000e+00 0.000000e+00
         vertex -9.857401e+00 2.899530e+00 0.000000e+00
         vertex -1.027500e+01 1.073252e-15 0.000000e+00
      endloop
   endfacet
   facet normal -0.000000e+00 0.000000e+00 -1.000000e+00
      outer loop
         vertex -1.750000e+01 7.775000e+00 0.000000e+00
         vertex -8.638548e+00 5.563373e+00 0.000000e+00
         vertex -9.857401e+00 2.899530e+00 0.000000e+00
      endloop
   endfacet
   facet normal -0.000000e+00 0.000000e+00 -1.000000e+00
      outer loop
         vertex -1.750000e+01 7.775000e+00 0.000000e+00
         vertex -6.717515e+00 7.775000e+00 0.000000e+00
         vertex -8.638548e+00 5.563373e+00 0.000000e+00
      endloop
   endfacet
   facet normal 0.000000e+00 0.000000e+00 -1.000000e+00
      outer loop
         vertex -1.027500e+01 1.073252e-15 0.000000e+00
         vertex -1.750000e+01 -1.122500e+01 0.000000e+00
         vertex -1.750000e+01 7.775000e+00 0.000000e+00
      endloop
   endfacet
   facet normal 0.000000e+00 0.000000e+00 -1.000000e+00
      outer loop
         vertex 6.717515e+00 -7.775000e+00 0.000000e+00
         vertex 1.750000e+01 -1.122500e+01 0.000000e+00
         vertex -1.750000e+01 -1.122500e+01 0.000000e+00
      endloop
   endfacet
   facet normal -4.841767e-17 -3.116416e-17 -1.000000e+00
      outer loop
         vertex 1.027500e+01 -3.922860e-15 0.000000e+00
         vertex 1.750000e+01 7.775000e+00 -5.921190e-16
         vertex 1.750000e+01 -1.122500e+01 0.000000e+00
      endloop
   endfacet
   facet normal -1.000000e+00 0.000000e+00 0.000000e+00
      outer loop
         vertex -1.850000e+01 -1.122500e+01 1.000000e+00
         vertex -1.850000e+01 -1.122500e+01 7.000000e+00
         vertex -1.850000e+01 7.775000e+00 7.000000e+00
      endloop
   endfacet
   facet normal -1.000000e+00 0.000000e+00 0.000000e+00
      outer loop
         vertex -1.850000e+01 7.775000e+00 7.000000e+00
         vertex -1.850000e+01 7.775000e+00 1.000000e+00
         vertex -1.850000e+01 -1.122500e+01 1.000000e+00
      endloop
   endfacet
   facet normal -0.000000e+00 0.000000e+00 1.000000e+00
      outer loop
         vertex -6.717515e+00 7.775000e+00 8.000000e+00
         vertex -1.750000e+01 7.775000e+00 8.000000e+00
         vertex -8.638548e+00 5.563373e+00 8.000000e+00
      endloop
   endfacet
   facet normal 0.000000e+00 0.000000e+00 1.000000e+00
      outer loop
         vertex -1.750000e+01 7.775000e+00 8.000000e+00
         vertex -1.750000e+01 -1.122500e+01 8.000000e+00
         vertex -1.027500e+01 1.073252e-15 8.000000e+00
      endloop
   endfacet
   facet normal 0.000000e+00 0.000000e+00 1.000000e+00
      outer loop
         vertex -1.750000e+01 -1.122500e+01 8.000000e+00
         vertex 1.750000e+01 -1.122500e+01 8.000000e+00
         vertex 6.717515e+00 -7.775000e+00 8.000000e+00
      endloop
   endfacet
   facet normal 0.000000e+00 0.000000e+00 1.000000e+00
      outer loop
         vertex 1.750000e+01 -1.122500e+01 8.000000e+00
         vertex 1.750000e+01 7.775000e+00 8.000000e+00
         vertex 1.027500e+01 -3.922860e-15 8.000000e+00
      endloop
   endfacet
   facet normal -0.000000e+00 0.000000e+00 1.000000e+00
      outer loop
         vertex 1.750000e+01 7.775000e+00 8.000000e+00
         vertex 6.717515e+00 7.775000e+00 8.000000e+00
         vertex 8.638548e+00 5.563373e+00 8.000000e+00
      endloop
   endfacet
   facet normal 0.000000e+00 -0.000000e+00 1.000000e+00
      outer loop
         vertex 8.638548e+00 5.563373e+00 8.000000e+00
         vertex 9.857401e+00 2.899530e+00 8.000000e+00
         vertex 1.750000e+01 7.775000e+00 8.000000e+00
      endloop
   endfacet
   facet normal 0.000000e+00 -0.000000e+00 1.000000e+00
      outer loop
         vertex 9.857401e+00 2.899530e+00 8.000000e+00
         vertex 1.027500e+01 -3.922860e-15 8.000000e+00
         vertex 1.750000e+01 7.775000e+00 8.000000e+00
      endloop
   endfacet
   facet normal -0.000000e+00 0.000000e+00 1.000000e+00
      outer loop
         vertex 1.027500e+01 -3.922860e-15 8.000000e+00
         vertex 9.857401e+00 -2.899530e+00 8.000000e+00
         vertex 1.750000e+01 -1.122500e+01 8.000000e+00
      endloop
   endfacet
   facet normal -0.000000e+00 0.000000e+00 1.000000e+00
      outer loop
         vertex 9.857401e+00 -2.899530e+00 8.000000e+00
         vertex 8.638548e+00 -5.563373e+00 8.000000e+00
         vertex 1.750000e+01 -1.122500e+01 8.000000e+00
      endloop
   endfacet
   facet normal -0.000000e+00 0.000000e+00 1.000000e+00
      outer loop
         vertex 8.638548e+00 -5.563373e+00 8.000000e+00
         vertex 6.717515e+00 -7.775000e+00 8.000000e+00
         vertex 1.750000e+01 -1.122500e+01 8.000000e+00
      endloop
   endfacet
   facet normal -0.000000e+00 0.000000e+00 1.000000e+00
      outer loop
         vertex 6.717515e+00 -7.775000e+00 8.000000e+00
         vertex -6.717515e+00 -7.775000e+00 8.000000e+00
         vertex -1.750000e+01 -1.122500e+01 8.000000e+00
      endloop
   endfacet
   facet normal 0.000000e+00 0.000000e+00 1.000000e+00
      outer loop
         vertex -6.717515e+00 -7.775000e+00 8.000000e+00
         vertex -8.638548e+00 -5.563373e+00 8.000000e+00
         vertex -1.750000e+01 -1.122500e+01 8.000000e+00
      endloop
   endfacet
   facet normal 0.000000e+00 0.000000e+00 1.000000e+00
      outer loop
         vertex -8.638548e+00 -5.563373e+00 8.000000e+00
         vertex -9.857401e+00 -2.899530e+00 8.000000e+00
         vertex -1.750000e+01 -1.122500e+01 8.000000e+00
      endloop
   endfacet
   facet normal 0.000000e+00 0.000000e+00 1.000000e+00
      outer loop
         vertex -9.857401e+00 -2.899530e+00 8.000000e+00
         vertex -1.027500e+01 1.073252e-15 8.000000e+00
         vertex -1.750000e+01 -1.122500e+01 8.000000e+00
      endloop
   endfacet
   facet normal 0.000000e+00 0.000000e+00 1.000000e+00
      outer loop
         vertex -1.027500e+01 1.073252e-15 8.000000e+00
         vertex -9.857401e+00 2.899530e+00 8.000000e+00
         vertex -1.750000e+01 7.775000e+00 8.000000e+00
      endloop
   endfacet
   facet normal 0.000000e+00 0.000000e+00 1.000000e+00
      outer loop
         vertex -9.857401e+00 2.899530e+00 8.000000e+00
         vertex -8.638548e+00 5.563373e+00 8.000000e+00
         vertex -1.750000e+01 7.775000e+00 8.000000e+00
      endloop
   endfacet
   facet normal 7.549638e-01 6.557664e-01 -0.000000e+00
      outer loop
         vertex -6.717515e+00 -7.775000e+00 0.000000e+00
         vertex -8.638548e+00 -5.563373e+00 0.000000e+00
         vertex -8.638548e+00 -5.563373e+00 8.000000e+00
      endloop
   endfacet
   facet normal 7.549638e-01 6.557664e-01 0.000000e+00
      outer loop
         vertex -6.717515e+00 -7.775000e+00 0.000000e+00
         vertex -8.638548e+00 -5.563373e+00 8.000000e+00
         vertex -6.717515e+00 -7.775000e+00 8.000000e+00
      endloop
   endfacet
   facet normal 9.093329e-01 4.160692e-01 -0.000000e+00
      outer loop
         vertex -8.638548e+00 -5.563373e+00 0.000000e+00
         vertex -9.857401e+00 -2.899530e+00 0.000000e+00
         vertex -9.857401e+00 -2.899530e+00 8.000000e+00
      endloop
   endfacet
   facet normal 9.093329e-01 4.160692e-01 0.000000e+00
      outer loop
         vertex -8.638548e+00 -5.563373e+00 0.000000e+00
         vertex -9.857401e+00 -2.899530e+00 8.000000e+00
         vertex -8.638548e+00 -5.563373e+00 8.000000e+00
      endloop
   endfacet
   facet normal 9.897873e-01 1.425520e-01 -0.000000e+00
      outer loop
         vertex -9.857401e+00 -2.899530e+00 0.000000e+00
         vertex -1.027500e+01 8.881784e-16 0.000000e+00
         vertex -1.027500e+01 8.881784e-16 8.000000e+00
      endloop
   endfacet
   facet normal 9.897873e-01 1.425520e-01 0.000000e+00
      outer loop
         vertex -9.857401e+00 -2.899530e+00 0.000000e+00
         vertex -1.027500e+01 8.881784e-16 8.000000e+00
         vertex -9.857401e+00 -2.899530e+00 8.000000e+00
      endloop
   endfacet
   facet normal 9.897873e-01 -1.425520e-01 0.000000e+00
      outer loop
         vertex -1.027500e+01 8.881784e-16 0.000000e+00
         vertex -9.857401e+00 2.899530e+00 0.000000e+00
         vertex -9.857401e+00 2.899530e+00 8.000000e+00
      endloop
   endfacet
   facet normal 9.897873e-01 -1.425520e-01 0.000000e+00
      outer loop
         vertex -1.027500e+01 8.881784e-16 0.000000e+00
         vertex -9.857401e+00 2.899530e+00 8.000000e+00
         vertex -1.027500e+01 8.881784e-16 8.000000e+00
      endloop
   endfacet
   facet normal 9.093329e-01 -4.160692e-01 0.000000e+00
      outer loop
         vertex -9.857401e+00 2.899530e+00 0.000000e+00
         vertex -8.638548e+00 5.563373e+00 0.000000e+00
         vertex -8.638548e+00 5.563373e+00 8.000000e+00
      endloop
   endfacet
   facet normal 9.093329e-01 -4.160692e-01 0.000000e+00
      outer loop
         vertex -9.857401e+00 2.899530e+00 0.000000e+00
         vertex -8.638548e+00 5.563373e+00 8.000000e+00
         vertex -9.857401e+00 2.899530e+00 8.000000e+00
      endloop
   endfacet
   facet normal 7.549638e-01 -6.557664e-01 0.000000e+00
      outer loop
         vertex -8.638548e+00 5.563373e+00 0.000000e+00
         vertex -6.717515e+00 7.775000e+00 0.000000e+00
         vertex -6.717515e+00 7.775000e+00 8.000000e+00
      endloop
   endfacet
   facet normal 7.549638e-01 -6.557664e-01 0.000000e+00
      outer loop
         vertex -8.638548e+00 5.563373e+00 0.000000e+00
         vertex -6.717515e+00 7.775000e+00 8.000000e+00
         vertex -8.638548e+00 5.563373e+00 8.000000e+00
      endloop
   endfacet
   facet normal -7.549638e-01 -6.557664e-01 0.000000e+00
      outer loop
         vertex 6.717515e+00 7.775000e+00 0.000000e+00
         vertex 8.638548e+00 5.563373e+00 0.000000e+00
         vertex 8.638548e+00 5.563373e+00 8.000000e+00
      endloop
   endfacet
   facet normal -7.549638e-01 -6.557664e-01 0.000000e+00
      outer loop
         vertex 6.717515e+00 7.775000e+00 0.000000e+00
         vertex 8.638548e+00 5.563373e+00 8.000000e+00
         vertex 6.717515e+00 7.775000e+00 8.000000e+00
      endloop
   endfacet
   facet normal -9.093329e-01 -4.160692e-01 0.000000e+00
      outer loop
         vertex 8.638548e+00 5.563373e+00 0.000000e+00
         vertex 9.857401e+00 2.899530e+00 0.000000e+00
         vertex 9.857401e+00 2.899530e+00 8.000000e+00
      endloop
   endfacet
   facet normal -9.093329e-01 -4.160692e-01 0.000000e+00
      outer loop
         vertex 8.638548e+00 5.563373e+00 0.000000e+00
         vertex 9.857401e+00 2.899530e+00 8.000000e+00
         vertex 8.638548e+00 5.563373e+00 8.000000e+00
      endloop
   endfacet
   facet normal -9.897873e-01 -1.425520e-01 0.000000e+00
      outer loop
         vertex 9.857401e+00 2.899530e+00 0.000000e+00
         vertex 1.027500e+01 -5.329071e-15 0.000000e+00
         vertex 1.027500e+01 -5.329071e-15 8.000000e+00
      endloop
   endfacet
   facet normal -9.897873e-01 -1.425520e-01 0.000000e+00
      outer loop
         vertex 9.857401e+00 2.899530e+00 0.000000e+00
         vertex 1.027500e+01 -5.329071e-15 8.000000e+00
         vertex 9.857401e+00 2.899530e+00 8.000000e+00
      endloop
   endfacet
   facet normal -9.897873e-01 1.425520e-01 0.000000e+00
      outer loop
         vertex 1.027500e+01 -5.329071e-15 0.000000e+00
         vertex 9.857401e+00 -2.899530e+00 0.000000e+00
         vertex 9.857401e+00 -2.899530e+00 8.000000e+00
      endloop
   endfacet
   facet normal -9.897873e-01 1.425520e-01 0.000000e+00
      outer loop
         vertex 1.027500e+01 -5.329071e-15 0.000000e+00
         vertex 9.857401e+00 -2.899530e+00 8.000000e+00
         vertex 1.027500e+01 -5.329071e-15 8.000000e+00
      endloop
   endfacet
   facet normal -9.093329e-01 4.160692e-01 0.000000e+00
      outer loop
         vertex 9.857401e+00 -2.899530e+00 0.000000e+00
         vertex 8.638548e+00 -5.563373e+00 0.000000e+00
         vertex 8.638548e+00 -5.563373e+00 8.000000e+00
      endloop
   endfacet
   facet normal -9.093329e-01 4.160692e-01 0.000000e+00
      outer loop
         vertex 9.857401e+00 -2.899530e+00 0.000000e+00
         vertex 8.638548e+00 -5.563373e+00 8.000000e+00
         vertex 9.857401e+00 -2.899530e+00 8.000000e+00
      endloop
   endfacet
   facet normal -7.549638e-01 6.557664e-01 0.000000e+00
      outer loop
         vertex 8.638548e+00 -5.563373e+00 0.000000e+00
         vertex 6.717515e+00 -7.775000e+00 0.000000e+00
         vertex 6.717515e+00 -7.775000e+00 8.000000e+00
      endloop
   endfacet
   facet normal -7.549638e-01 6.557664e-01 0.000000e+00
      outer loop
         vertex 8.638548e+00 -5.563373e+00 0.000000e+00
         vertex 6.717515e+00 -7.775000e+00 8.000000e+00
         vertex 8.638548e+00 -5.563373e+00 8.000000e+00
      endloop
   endfacet
   facet normal 1.000000e+00 -0.000000e+00 0.000000e+00
      outer loop
         vertex 1.850000e+01 7.775000e+00 7.000000e+00
         vertex 1.850000e+01 -1.122500e+01 7.000000e+00
         vertex 1.850000e+01 -1.122500e+01 1.000000e+00
      endloop
   endfacet
   facet normal 1.000000e+00 0.000000e+00 -0.000000e+00
      outer loop
         vertex 1.850000e+01 -1.122500e+01 1.000000e+00
         vertex 1.850000e+01 7.775000e+00 1.000000e+00
         vertex 1.850000e+01 7.775000e+00 7.000000e+00
      endloop
   endfacet
   facet normal 0.000000e+00 1.000000e+00 0.000000e+00
      outer loop
         vertex -1.335093e+01 -7.225000e+00 4.964181e+00
         vertex -1.300000e+01 -7.225000e+00 4.000000e+00
         vertex -1.335093e+01 -7.225000e+00 3.035819e+00
      endloop
   endfacet
   facet normal 0.000000e+00 1.000000e+00 0.000000e+00
      outer loop
         vertex -1.335093e+01 -7.225000e+00 3.035819e+00
         vertex -1.423953e+01 -7.225000e+00 2.522788e+00
         vertex -1.335093e+01 -7.225000e+00 4.964181e+00
      endloop
   endfacet
   facet normal -0.000000e+00 1.000000e+00 0.000000e+00
      outer loop
         vertex -1.423953e+01 -7.225000e+00 2.522788e+00
         vertex -1.525000e+01 -7.225000e+00 2.700962e+00
         vertex -1.335093e+01 -7.225000e+00 4.964181e+00
      endloop
   endfacet
   facet normal -0.000000e+00 1.000000e+00 0.000000e+00
      outer loop
         vertex -1.525000e+01 -7.225000e+00 2.700962e+00
         vertex -1.590954e+01 -7.225000e+00 3.486970e+00
         vertex -1.335093e+01 -7.225000e+00 4.964181e+00
      endloop
   endfacet
   facet normal -0.000000e+00 1.000000e+00 0.000000e+00
      outer loop
         vertex -1.590954e+01 -7.225000e+00 3.486970e+00
         vertex -1.590954e+01 -7.225000e+00 4.513030e+00
         vertex -1.335093e+01 -7.225000e+00 4.964181e+00
      endloop
   endfacet
   facet normal 0.000000e+00 1.000000e+00 0.000000e+00
      outer loop
         vertex -1.590954e+01 -7.225000e+00 4.513030e+00
         vertex -1.525000e+01 -7.225000e+00 5.299038e+00
         vertex -1.335093e+01 -7.225000e+00 4.964181e+00
      endloop
   endfacet
   facet normal 0.000000e+00 1.000000e+00 0.000000e+00
      outer loop
         vertex -1.525000e+01 -7.225000e+00 5.299038e+00
         vertex -1.423953e+01 -7.225000e+00 5.477211e+00
         vertex -1.335093e+01 -7.225000e+00 4.964181e+00
      endloop
   endfacet
   facet normal 0.000000e+00 1.000000e+00 0.000000e+00
      outer loop
         vertex 1.564907e+01 -7.225000e+00 4.964181e+00
         vertex 1.600000e+01 -7.225000e+00 4.000000e+00
         vertex 1.564907e+01 -7.225000e+00 3.035819e+00
      endloop
   endfacet
   facet normal 0.000000e+00 1.000000e+00 0.000000e+00
      outer loop
         vertex 1.564907e+01 -7.225000e+00 3.035819e+00
         vertex 1.476047e+01 -7.225000e+00 2.522788e+00
         vertex 1.564907e+01 -7.225000e+00 4.964181e+00
      endloop
   endfacet
   facet normal -0.000000e+00 1.000000e+00 0.000000e+00
      outer loop
         vertex 1.476047e+01 -7.225000e+00 2.522788e+00
         vertex 1.375000e+01 -7.225000e+00 2.700962e+00
         vertex 1.564907e+01 -7.225000e+00 4.964181e+00
      endloop
   endfacet
   facet normal -0.000000e+00 1.000000e+00 0.000000e+00
      outer loop
         vertex 1.375000e+01 -7.225000e+00 2.700962e+00
         vertex 1.309046e+01 -7.225000e+00 3.486970e+00
         vertex 1.564907e+01 -7.225000e+00 4.964181e+00
      endloop
   endfacet
   facet normal -0.000000e+00 1.000000e+00 0.000000e+00
      outer loop
         vertex 1.309046e+01 -7.225000e+00 3.486970e+00
         vertex 1.309046e+01 -7.225000e+00 4.513030e+00
         vertex 1.564907e+01 -7.225000e+00 4.964181e+00
      endloop
   endfacet
   facet normal 0.000000e+00 1.000000e+00 0.000000e+00
      outer loop
         vertex 1.309046e+01 -7.225000e+00 4.513030e+00
         vertex 1.375000e+01 -7.225000e+00 5.299038e+00
         vertex 1.564907e+01 -7.225000e+00 4.964181e+00
      endloop
   endfacet
   facet normal 0.000000e+00 1.000000e+00 0.000000e+00
      outer loop
         vertex 1.375000e+01 -7.225000e+00 5.299038e+00
         vertex 1.476047e+01 -7.225000e+00 5.477211e+00
         vertex 1.564907e+01 -7.225000e+00 4.964181e+00
      endloop
   endfacet
   facet normal 0.000000e+00 1.000000e+00 -0.000000e+00
      outer loop
         vertex 6.717515e+00 -7.775000e+00 8.000000e+00
         vertex 6.717515e+00 -7.775000e+00 0.000000e+00
         vertex -6.717515e+00 -7.775000e+00 0.000000e+00
      endloop
   endfacet
   facet normal -0.000000e+00 1.000000e+00 0.000000e+00
      outer loop
         vertex -6.717515e+00 -7.775000e+00 0.000000e+00
         vertex -6.717515e+00 -7.775000e+00 8.000000e+00
         vertex 6.717515e+00 -7.775000e+00 8.000000e+00
      endloop
   endfacet
   facet normal 0.000000e+00 -1.000000e+00 0.000000e+00
      outer loop
         vertex -1.750000e+01 -1.222500e+01 1.000000e+00
         vertex 1.750000e+01 -1.222500e+01 1.000000e+00
         vertex 1.750000e+01 -1.222500e+01 7.000000e+00
      endloop
   endfacet
   facet normal 0.000000e+00 -1.000000e+00 0.000000e+00
      outer loop
         vertex 1.750000e+01 -1.222500e+01 7.000000e+00
         vertex -1.750000e+01 -1.222500e+01 7.000000e+00
         vertex -1.750000e+01 -1.222500e+01 1.000000e+00
      endloop
   endfacet
   facet normal 0.000000e+00 -2.588190e-01 -9.659258e-01
      outer loop
         vertex 1.750000e+01 -1.172500e+01 1.339746e-01
         vertex -1.750000e+01 -1.172500e+01 1.339746e-01
         vertex -1.750000e+01 -1.122500e+01 0.000000e+00
      endloop
   endfacet
   facet normal 0.000000e+00 -2.588190e-01 -9.659258e-01
      outer loop
         vertex 1.750000e+01 -1.122500e+01 0.000000e+00
         vertex 1.750000e+01 -1.172500e+01 1.339746e-01
         vertex -1.750000e+01 -1.122500e+01 0.000000e+00
      endloop
   endfacet
   facet normal 0.000000e+00 -7.071072e-01 -7.071064e-01
      outer loop
         vertex 1.750000e+01 -1.209103e+01 5.000000e-01
         vertex -1.750000e+01 -1.209103e+01 5.000000e-01
         vertex -1.750000e+01 -1.172500e+01 1.339746e-01
      endloop
   endfacet
   facet normal 0.000000e+00 -7.071072e-01 -7.071064e-01
      outer loop
         vertex 1.750000e+01 -1.172500e+01 1.339746e-01
         vertex 1.750000e+01 -1.209103e+01 5.000000e-01
         vertex -1.750000e+01 -1.172500e+01 1.339746e-01
      endloop
   endfacet
   facet normal 0.000000e+00 -9.659256e-01 -2.588198e-01
      outer loop
         vertex 1.750000e+01 -1.222500e+01 1.000000e+00
         vertex -1.750000e+01 -1.222500e+01 1.000000e+00
         vertex -1.750000e+01 -1.209103e+01 5.000000e-01
      endloop
   endfacet
   facet normal 0.000000e+00 -9.659256e-01 -2.588198e-01
      outer loop
         vertex 1.750000e+01 -1.209103e+01 5.000000e-01
         vertex 1.750000e+01 -1.222500e+01 1.000000e+00
         vertex -1.750000e+01 -1.209103e+01 5.000000e-01
      endloop
   endfacet
   facet normal -2.588190e-01 -0.000000e+00 -9.659258e-01
      outer loop
         vertex -1.800000e+01 -1.122500e+01 1.339746e-01
         vertex -1.800000e+01 7.775000e+00 1.339746e-01
         vertex -1.750000e+01 7.775000e+00 0.000000e+00
      endloop
   endfacet
   facet normal -2.588190e-01 0.000000e+00 -9.659258e-01
      outer loop
         vertex -1.750000e+01 -1.122500e+01 0.000000e+00
         vertex -1.800000e+01 -1.122500e+01 1.339746e-01
         vertex -1.750000e+01 7.775000e+00 0.000000e+00
      endloop
   endfacet
   facet normal -7.071063e-01 -0.000000e+00 -7.071073e-01
      outer loop
         vertex -1.836603e+01 -1.122500e+01 5.000000e-01
         vertex -1.836603e+01 7.775000e+00 5.000000e-01
         vertex -1.800000e+01 7.775000e+00 1.339746e-01
      endloop
   endfacet
   facet normal -7.071063e-01 0.000000e+00 -7.071073e-01
      outer loop
         vertex -1.800000e+01 -1.122500e+01 1.339746e-01
         vertex -1.836603e+01 -1.122500e+01 5.000000e-01
         vertex -1.800000e+01 7.775000e+00 1.339746e-01
      endloop
   endfacet
   facet normal -9.659261e-01 -0.000000e+00 -2.588181e-01
      outer loop
         vertex -1.850000e+01 -1.122500e+01 1.000000e+00
         vertex -1.850000e+01 7.775000e+00 1.000000e+00
         vertex -1.836603e+01 7.775000e+00 5.000000e-01
      endloop
   endfacet
   facet normal -9.659261e-01 0.000000e+00 -2.588181e-01
      outer loop
         vertex -1.836603e+01 -1.122500e+01 5.000000e-01
         vertex -1.850000e+01 -1.122500e+01 1.000000e+00
         vertex -1.836603e+01 7.775000e+00 5.000000e-01
      endloop
   endfacet
   facet normal -6.947468e-01 -5.085907e-01 -5.085887e-01
      outer loop
         vertex -1.800000e+01 -1.197500e+01 5.669873e-01
         vertex -1.836603e+01 -1.165801e+01 7.500000e-01
         vertex -1.836603e+01 -1.147500e+01 5.669873e-01
      endloop
   endfacet
   facet normal -6.947457e-01 -5.085899e-01 -5.085910e-01
      outer loop
         vertex -1.800000e+01 -1.165801e+01 2.500000e-01
         vertex -1.800000e+01 -1.197500e+01 5.669873e-01
         vertex -1.836603e+01 -1.147500e+01 5.669873e-01
      endloop
   endfacet
   facet normal -9.636116e-01 -2.581979e-01 -6.918465e-02
      outer loop
         vertex -1.836603e+01 -1.165801e+01 7.500000e-01
         vertex -1.836603e+01 -1.172500e+01 1.000000e+00
         vertex -1.850000e+01 -1.122500e+01 1.000000e+00
      endloop
   endfacet
   facet normal -6.947454e-01 -6.947472e-01 -1.861589e-01
      outer loop
         vertex -1.836603e+01 -1.165801e+01 7.500000e-01
         vertex -1.800000e+01 -1.209103e+01 1.000000e+00
         vertex -1.836603e+01 -1.172500e+01 1.000000e+00
      endloop
   endfacet
   facet normal -2.505635e-01 -9.351127e-01 -2.505635e-01
      outer loop
         vertex -1.750000e+01 -1.209103e+01 5.000000e-01
         vertex -1.750000e+01 -1.222500e+01 1.000000e+00
         vertex -1.800000e+01 -1.209103e+01 1.000000e+00
      endloop
   endfacet
   facet normal -2.505637e-01 -6.845506e-01 -6.845498e-01
      outer loop
         vertex -1.800000e+01 -1.165801e+01 2.500000e-01
         vertex -1.750000e+01 -1.172500e+01 1.339746e-01
         vertex -1.750000e+01 -1.209103e+01 5.000000e-01
      endloop
   endfacet
   facet normal -2.505628e-01 -2.505628e-01 -9.351131e-01
      outer loop
         vertex -1.800000e+01 -1.122500e+01 1.339746e-01
         vertex -1.750000e+01 -1.122500e+01 0.000000e+00
         vertex -1.750000e+01 -1.172500e+01 1.339746e-01
      endloop
   endfacet
   facet normal -6.947461e-01 -1.861569e-01 -6.947471e-01
      outer loop
         vertex -1.836603e+01 -1.147500e+01 5.669873e-01
         vertex -1.836603e+01 -1.122500e+01 5.000000e-01
         vertex -1.800000e+01 -1.122500e+01 1.339746e-01
      endloop
   endfacet
   facet normal -9.636116e-01 -6.918391e-02 -2.581980e-01
      outer loop
         vertex -1.836603e+01 -1.147500e+01 5.669873e-01
         vertex -1.850000e+01 -1.122500e+01 1.000000e+00
         vertex -1.836603e+01 -1.122500e+01 5.000000e-01
      endloop
   endfacet
   facet normal 0.000000e+00 0.000000e+00 -0.000000e+00
      outer loop
         vertex -1.836603e+01 -1.147500e+01 5.669873e-01
         vertex -1.850000e+01 -1.122500e+01 1.000000e+00
         vertex -1.850000e+01 -1.122500e+01 1.000000e+00
      endloop
   endfacet
   facet normal 0.000000e+00 0.000000e+00 -0.000000e+00
      outer loop
         vertex -1.836603e+01 -1.165801e+01 7.500000e-01
         vertex -1.850000e+01 -1.122500e+01 1.000000e+00
         vertex -1.850000e+01 -1.122500e+01 1.000000e+00
      endloop
   endfacet
   facet normal -9.636116e-01 -1.890145e-01 -1.890137e-01
      outer loop
         vertex -1.850000e+01 -1.122500e+01 1.000000e+00
         vertex -1.836603e+01 -1.147500e+01 5.669873e-01
         vertex -1.836603e+01 -1.165801e+01 7.500000e-01
      endloop
   endfacet
   facet normal -6.947459e-01 -1.861572e-01 -6.947471e-01
      outer loop
         vertex -1.800000e+01 -1.122500e+01 1.339746e-01
         vertex -1.800000e+01 -1.165801e+01 2.500000e-01
         vertex -1.836603e+01 -1.147500e+01 5.669873e-01
      endloop
   endfacet
   facet normal -6.947467e-01 -6.947467e-01 -1.861561e-01
      outer loop
         vertex -1.800000e+01 -1.209103e+01 1.000000e+00
         vertex -1.836603e+01 -1.165801e+01 7.500000e-01
         vertex -1.800000e+01 -1.197500e+01 5.669873e-01
      endloop
   endfacet
   facet normal -2.505622e-01 -6.845497e-01 -6.845512e-01
      outer loop
         vertex -1.750000e+01 -1.209103e+01 5.000000e-01
         vertex -1.800000e+01 -1.197500e+01 5.669873e-01
         vertex -1.800000e+01 -1.165801e+01 2.500000e-01
      endloop
   endfacet
   facet normal -2.505620e-01 -9.351136e-01 -2.505620e-01
      outer loop
         vertex -1.800000e+01 -1.197500e+01 5.669873e-01
         vertex -1.750000e+01 -1.209103e+01 5.000000e-01
         vertex -1.800000e+01 -1.209103e+01 1.000000e+00
      endloop
   endfacet
   facet normal -2.505632e-01 -2.505632e-01 -9.351129e-01
      outer loop
         vertex -1.800000e+01 -1.122500e+01 1.339746e-01
         vertex -1.750000e+01 -1.172500e+01 1.339746e-01
         vertex -1.800000e+01 -1.165801e+01 2.500000e-01
      endloop
   endfacet
   facet normal -2.588198e-01 -9.659256e-01 0.000000e+00
      outer loop
         vertex -1.800000e+01 -1.209103e+01 7.000000e+00
         vertex -1.800000e+01 -1.209103e+01 1.000000e+00
         vertex -1.750000e+01 -1.222500e+01 1.000000e+00
      endloop
   endfacet
   facet normal -2.588198e-01 -9.659256e-01 0.000000e+00
      outer loop
         vertex -1.750000e+01 -1.222500e+01 7.000000e+00
         vertex -1.800000e+01 -1.209103e+01 7.000000e+00
         vertex -1.750000e+01 -1.222500e+01 1.000000e+00
      endloop
   endfacet
   facet normal -7.071059e-01 -7.071077e-01 0.000000e+00
      outer loop
         vertex -1.836603e+01 -1.172500e+01 7.000000e+00
         vertex -1.836603e+01 -1.172500e+01 1.000000e+00
         vertex -1.800000e+01 -1.209103e+01 1.000000e+00
      endloop
   endfacet
   facet normal -7.071059e-01 -7.071077e-01 0.000000e+00
      outer loop
         vertex -1.800000e+01 -1.209103e+01 7.000000e+00
         vertex -1.836603e+01 -1.172500e+01 7.000000e+00
         vertex -1.800000e+01 -1.209103e+01 1.000000e+00
      endloop
   endfacet
   facet normal -9.659261e-01 -2.588181e-01 0.000000e+00
      outer loop
         vertex -1.850000e+01 -1.122500e+01 7.000000e+00
         vertex -1.850000e+01 -1.122500e+01 1.000000e+00
         vertex -1.836603e+01 -1.172500e+01 1.000000e+00
      endloop
   endfacet
   facet normal -9.659261e-01 -2.588181e-01 0.000000e+00
      outer loop
         vertex -1.836603e+01 -1.172500e+01 7.000000e+00
         vertex -1.850000e+01 -1.122500e+01 7.000000e+00
         vertex -1.836603e+01 -1.172500e+01 1.000000e+00
      endloop
   endfacet
   facet normal -2.588190e-01 0.000000e+00 9.659258e-01
      outer loop
         vertex -1.750000e+01 7.775000e+00 8.000000e+00
         vertex -1.800000e+01 7.775000e+00 7.866025e+00
         vertex -1.800000e+01 -1.122500e+01 7.866025e+00
      endloop
   endfacet
   facet normal -2.588190e-01 0.000000e+00 9.659258e-01
      outer loop
         vertex -1.750000e+01 7.775000e+00 8.000000e+00
         vertex -1.800000e+01 -1.122500e+01 7.866025e+00
         vertex -1.750000e+01 -1.122500e+01 8.000000e+00
      endloop
   endfacet
   facet normal -7.071063e-01 0.000000e+00 7.071072e-01
      outer loop
         vertex -1.800000e+01 7.775000e+00 7.866025e+00
         vertex -1.836603e+01 7.775000e+00 7.500000e+00
         vertex -1.836603e+01 -1.122500e+01 7.500000e+00
      endloop
   endfacet
   facet normal -7.071063e-01 0.000000e+00 7.071072e-01
      outer loop
         vertex -1.800000e+01 7.775000e+00 7.866025e+00
         vertex -1.836603e+01 -1.122500e+01 7.500000e+00
         vertex -1.800000e+01 -1.122500e+01 7.866025e+00
      endloop
   endfacet
   facet normal -9.659261e-01 0.000000e+00 2.588181e-01
      outer loop
         vertex -1.836603e+01 7.775000e+00 7.500000e+00
         vertex -1.850000e+01 7.775000e+00 7.000000e+00
         vertex -1.850000e+01 -1.122500e+01 7.000000e+00
      endloop
   endfacet
   facet normal -9.659261e-01 0.000000e+00 2.588181e-01
      outer loop
         vertex -1.836603e+01 7.775000e+00 7.500000e+00
         vertex -1.850000e+01 -1.122500e+01 7.000000e+00
         vertex -1.836603e+01 -1.122500e+01 7.500000e+00
      endloop
   endfacet
   facet normal -5.085898e-01 -5.085898e-01 6.947465e-01
      outer loop
         vertex -1.793301e+01 -1.197500e+01 7.500000e+00
         vertex -1.775000e+01 -1.165801e+01 7.866025e+00
         vertex -1.793301e+01 -1.147500e+01 7.866025e+00
      endloop
   endfacet
   facet normal -5.085898e-01 -5.085898e-01 6.947465e-01
      outer loop
         vertex -1.825000e+01 -1.165801e+01 7.500000e+00
         vertex -1.793301e+01 -1.197500e+01 7.500000e+00
         vertex -1.793301e+01 -1.147500e+01 7.866025e+00
      endloop
   endfacet
   facet normal -6.918488e-02 -2.581988e-01 9.636113e-01
      outer loop
         vertex -1.775000e+01 -1.165801e+01 7.866025e+00
         vertex -1.750000e+01 -1.172500e+01 7.866025e+00
         vertex -1.750000e+01 -1.122500e+01 8.000000e+00
      endloop
   endfacet
   facet normal -1.861588e-01 -6.947468e-01 6.947459e-01
      outer loop
         vertex -1.775000e+01 -1.165801e+01 7.866025e+00
         vertex -1.750000e+01 -1.209103e+01 7.500000e+00
         vertex -1.750000e+01 -1.172500e+01 7.866025e+00
      endloop
   endfacet
   facet normal -2.505635e-01 -9.351127e-01 2.505635e-01
      outer loop
         vertex -1.800000e+01 -1.209103e+01 7.000000e+00
         vertex -1.750000e+01 -1.222500e+01 7.000000e+00
         vertex -1.750000e+01 -1.209103e+01 7.500000e+00
      endloop
   endfacet
   facet normal -6.845492e-01 -6.845509e-01 2.505643e-01
      outer loop
         vertex -1.825000e+01 -1.165801e+01 7.500000e+00
         vertex -1.836603e+01 -1.172500e+01 7.000000e+00
         vertex -1.800000e+01 -1.209103e+01 7.000000e+00
      endloop
   endfacet
   facet normal -9.351136e-01 -2.505620e-01 2.505620e-01
      outer loop
         vertex -1.836603e+01 -1.122500e+01 7.500000e+00
         vertex -1.850000e+01 -1.122500e+01 7.000000e+00
         vertex -1.836603e+01 -1.172500e+01 7.000000e+00
      endloop
   endfacet
   facet normal -6.947459e-01 -1.861585e-01 6.947468e-01
      outer loop
         vertex -1.793301e+01 -1.147500e+01 7.866025e+00
         vertex -1.800000e+01 -1.122500e+01 7.866025e+00
         vertex -1.836603e+01 -1.122500e+01 7.500000e+00
      endloop
   endfacet
   facet normal -2.581988e-01 -6.918488e-02 9.636113e-01
      outer loop
         vertex -1.793301e+01 -1.147500e+01 7.866025e+00
         vertex -1.750000e+01 -1.122500e+01 8.000000e+00
         vertex -1.800000e+01 -1.122500e+01 7.866025e+00
      endloop
   endfacet
   facet normal 0.000000e+00 0.000000e+00 0.000000e+00
      outer loop
         vertex -1.793301e+01 -1.147500e+01 7.866025e+00
         vertex -1.750000e+01 -1.122500e+01 8.000000e+00
         vertex -1.750000e+01 -1.122500e+01 8.000000e+00
      endloop
   endfacet
   facet normal 0.000000e+00 0.000000e+00 0.000000e+00
      outer loop
         vertex -1.775000e+01 -1.165801e+01 7.866025e+00
         vertex -1.750000e+01 -1.122500e+01 8.000000e+00
         vertex -1.750000e+01 -1.122500e+01 8.000000e+00
      endloop
   endfacet
   facet normal -1.890148e-01 -1.890148e-01 9.636113e-01
      outer loop
         vertex -1.750000e+01 -1.122500e+01 8.000000e+00
         vertex -1.793301e+01 -1.147500e+01 7.866025e+00
         vertex -1.775000e+01 -1.165801e+01 7.866025e+00
      endloop
   endfacet
   facet normal -6.947457e-01 -1.861577e-01 6.947472e-01
      outer loop
         vertex -1.836603e+01 -1.122500e+01 7.500000e+00
         vertex -1.825000e+01 -1.165801e+01 7.500000e+00
         vertex -1.793301e+01 -1.147500e+01 7.866025e+00
      endloop
   endfacet
   facet normal -1.861563e-01 -6.947463e-01 6.947470e-01
      outer loop
         vertex -1.750000e+01 -1.209103e+01 7.500000e+00
         vertex -1.775000e+01 -1.165801e+01 7.866025e+00
         vertex -1.793301e+01 -1.197500e+01 7.500000e+00
      endloop
   endfacet
   facet normal -6.845503e-01 -6.845503e-01 2.505631e-01
      outer loop
         vertex -1.800000e+01 -1.209103e+01 7.000000e+00
         vertex -1.793301e+01 -1.197500e+01 7.500000e+00
         vertex -1.825000e+01 -1.165801e+01 7.500000e+00
      endloop
   endfacet
   facet normal -2.505623e-01 -9.351134e-01 2.505623e-01
      outer loop
         vertex -1.793301e+01 -1.197500e+01 7.500000e+00
         vertex -1.800000e+01 -1.209103e+01 7.000000e+00
         vertex -1.750000e+01 -1.209103e+01 7.500000e+00
      endloop
   endfacet
   facet normal -9.351124e-01 -2.505641e-01 2.505641e-01
      outer loop
         vertex -1.836603e+01 -1.122500e+01 7.500000e+00
         vertex -1.836603e+01 -1.172500e+01 7.000000e+00
         vertex -1.825000e+01 -1.165801e+01 7.500000e+00
      endloop
   endfacet
   facet normal 0.000000e+00 -2.588190e-01 9.659258e-01
      outer loop
         vertex -1.750000e+01 -1.122500e+01 8.000000e+00
         vertex -1.750000e+01 -1.172500e+01 7.866025e+00
         vertex 1.750000e+01 -1.172500e+01 7.866025e+00
      endloop
   endfacet
   facet normal 0.000000e+00 -2.588190e-01 9.659258e-01
      outer loop
         vertex -1.750000e+01 -1.122500e+01 8.000000e+00
         vertex 1.750000e+01 -1.172500e+01 7.866025e+00
         vertex 1.750000e+01 -1.122500e+01 8.000000e+00
      endloop
   endfacet
   facet normal 0.000000e+00 -7.071072e-01 7.071063e-01
      outer loop
         vertex -1.750000e+01 -1.172500e+01 7.866025e+00
         vertex -1.750000e+01 -1.209103e+01 7.500000e+00
         vertex 1.750000e+01 -1.209103e+01 7.500000e+00
      endloop
   endfacet
   facet normal 0.000000e+00 -7.071072e-01 7.071063e-01
      outer loop
         vertex -1.750000e+01 -1.172500e+01 7.866025e+00
         vertex 1.750000e+01 -1.209103e+01 7.500000e+00
         vertex 1.750000e+01 -1.172500e+01 7.866025e+00
      endloop
   endfacet
   facet normal 0.000000e+00 -9.659256e-01 2.588198e-01
      outer loop
         vertex -1.750000e+01 -1.209103e+01 7.500000e+00
         vertex -1.750000e+01 -1.222500e+01 7.000000e+00
         vertex 1.750000e+01 -1.222500e+01 7.000000e+00
      endloop
   endfacet
   facet normal 0.000000e+00 -9.659256e-01 2.588198e-01
      outer loop
         vertex -1.750000e+01 -1.209103e+01 7.500000e+00
         vertex 1.750000e+01 -1.222500e+01 7.000000e+00
         vertex 1.750000e+01 -1.209103e+01 7.500000e+00
      endloop
   endfacet
   facet normal 2.588190e-01 -0.000000e+00 9.659258e-01
      outer loop
         vertex 1.750000e+01 7.775000e+00 8.000000e+00
         vertex 1.750000e+01 -1.122500e+01 8.000000e+00
         vertex 1.800000e+01 -1.122500e+01 7.866025e+00
      endloop
   endfacet
   facet normal 7.071052e-01 -1.793385e-03 7.071061e-01
      outer loop
         vertex 1.800000e+01 -1.122500e+01 7.866025e+00
         vertex 1.836603e+01 -1.122500e+01 7.500000e+00
         vertex 1.820711e+01 7.775000e+00 7.707107e+00
      endloop
   endfacet
   facet normal 9.659261e-01 -0.000000e+00 2.588181e-01
      outer loop
         vertex 1.836603e+01 -1.122500e+01 7.500000e+00
         vertex 1.850000e+01 -1.122500e+01 7.000000e+00
         vertex 1.850000e+01 7.775000e+00 7.000000e+00
      endloop
   endfacet
   facet normal 9.238740e-01 3.556050e-03 3.826803e-01
      outer loop
         vertex 1.850000e+01 7.775000e+00 7.000000e+00
         vertex 1.820711e+01 7.775000e+00 7.707107e+00
         vertex 1.836603e+01 -1.122500e+01 7.500000e+00
      endloop
   endfacet
   facet normal 3.826809e-01 3.556045e-03 9.238737e-01
      outer loop
         vertex 1.820711e+01 7.775000e+00 7.707107e+00
         vertex 1.750000e+01 7.775000e+00 8.000000e+00
         vertex 1.800000e+01 -1.122500e+01 7.866025e+00
      endloop
   endfacet
   facet normal 5.085898e-01 -5.085898e-01 6.947465e-01
      outer loop
         vertex 1.775000e+01 -1.165801e+01 7.866025e+00
         vertex 1.793301e+01 -1.197500e+01 7.500000e+00
         vertex 1.825000e+01 -1.165801e+01 7.500000e+00
      endloop
   endfacet
   facet normal 5.085898e-01 -5.085898e-01 6.947465e-01
      outer loop
         vertex 1.793301e+01 -1.147500e+01 7.866025e+00
         vertex 1.775000e+01 -1.165801e+01 7.866025e+00
         vertex 1.825000e+01 -1.165801e+01 7.500000e+00
      endloop
   endfacet
   facet normal 0.000000e+00 0.000000e+00 -0.000000e+00
      outer loop
         vertex 1.775000e+01 -1.165801e+01 7.866025e+00
         vertex 1.750000e+01 -1.122500e+01 8.000000e+00
         vertex 1.750000e+01 -1.122500e+01 8.000000e+00
      endloop
   endfacet
   facet normal 0.000000e+00 0.000000e+00 -0.000000e+00
      outer loop
         vertex 1.793301e+01 -1.147500e+01 7.866025e+00
         vertex 1.750000e+01 -1.122500e+01 8.000000e+00
         vertex 1.750000e+01 -1.122500e+01 8.000000e+00
      endloop
   endfacet
   facet normal 2.581988e-01 -6.918488e-02 9.636113e-01
      outer loop
         vertex 1.793301e+01 -1.147500e+01 7.866025e+00
         vertex 1.800000e+01 -1.122500e+01 7.866025e+00
         vertex 1.750000e+01 -1.122500e+01 8.000000e+00
      endloop
   endfacet
   facet normal 6.947460e-01 -1.861578e-01 6.947469e-01
      outer loop
         vertex 1.825000e+01 -1.165801e+01 7.500000e+00
         vertex 1.836603e+01 -1.122500e+01 7.500000e+00
         vertex 1.800000e+01 -1.122500e+01 7.866025e+00
      endloop
   endfacet
   facet normal 9.351136e-01 -2.505620e-01 2.505620e-01
      outer loop
         vertex 1.836603e+01 -1.172500e+01 7.000000e+00
         vertex 1.850000e+01 -1.122500e+01 7.000000e+00
         vertex 1.836603e+01 -1.122500e+01 7.500000e+00
      endloop
   endfacet
   facet normal 6.845492e-01 -6.845509e-01 2.505643e-01
      outer loop
         vertex 1.825000e+01 -1.165801e+01 7.500000e+00
         vertex 1.800000e+01 -1.209103e+01 7.000000e+00
         vertex 1.836603e+01 -1.172500e+01 7.000000e+00
      endloop
   endfacet
   facet normal 2.505635e-01 -9.351127e-01 2.505635e-01
      outer loop
         vertex 1.750000e+01 -1.209103e+01 7.500000e+00
         vertex 1.750000e+01 -1.222500e+01 7.000000e+00
         vertex 1.800000e+01 -1.209103e+01 7.000000e+00
      endloop
   endfacet
   facet normal 1.861565e-01 -6.947471e-01 6.947462e-01
      outer loop
         vertex 1.793301e+01 -1.197500e+01 7.500000e+00
         vertex 1.750000e+01 -1.172500e+01 7.866025e+00
         vertex 1.750000e+01 -1.209103e+01 7.500000e+00
      endloop
   endfacet
   facet normal 6.918488e-02 -2.581988e-01 9.636113e-01
      outer loop
         vertex 1.775000e+01 -1.165801e+01 7.866025e+00
         vertex 1.750000e+01 -1.122500e+01 8.000000e+00
         vertex 1.750000e+01 -1.172500e+01 7.866025e+00
      endloop
   endfacet
   facet normal 6.845503e-01 -6.845503e-01 2.505631e-01
      outer loop
         vertex 1.800000e+01 -1.209103e+01 7.000000e+00
         vertex 1.825000e+01 -1.165801e+01 7.500000e+00
         vertex 1.793301e+01 -1.197500e+01 7.500000e+00
      endloop
   endfacet
   facet normal 6.947455e-01 -1.861584e-01 6.947473e-01
      outer loop
         vertex 1.800000e+01 -1.122500e+01 7.866025e+00
         vertex 1.793301e+01 -1.147500e+01 7.866025e+00
         vertex 1.825000e+01 -1.165801e+01 7.500000e+00
      endloop
   endfacet
   facet normal 1.861584e-01 -6.947455e-01 6.947473e-01
      outer loop
         vertex 1.750000e+01 -1.172500e+01 7.866025e+00
         vertex 1.793301e+01 -1.197500e+01 7.500000e+00
         vertex 1.775000e+01 -1.165801e+01 7.866025e+00
      endloop
   endfacet
   facet normal 1.890148e-01 -1.890148e-01 9.636113e-01
      outer loop
         vertex 1.750000e+01 -1.122500e+01 8.000000e+00
         vertex 1.775000e+01 -1.165801e+01 7.866025e+00
         vertex 1.793301e+01 -1.147500e+01 7.866025e+00
      endloop
   endfacet
   facet normal 9.351124e-01 -2.505641e-01 2.505641e-01
      outer loop
         vertex 1.836603e+01 -1.172500e+01 7.000000e+00
         vertex 1.836603e+01 -1.122500e+01 7.500000e+00
         vertex 1.825000e+01 -1.165801e+01 7.500000e+00
      endloop
   endfacet
   facet normal 2.505623e-01 -9.351134e-01 2.505623e-01
      outer loop
         vertex 1.793301e+01 -1.197500e+01 7.500000e+00
         vertex 1.750000e+01 -1.209103e+01 7.500000e+00
         vertex 1.800000e+01 -1.209103e+01 7.000000e+00
      endloop
   endfacet
   facet normal 9.659261e-01 -2.588181e-01 0.000000e+00
      outer loop
         vertex 1.836603e+01 -1.172500e+01 7.000000e+00
         vertex 1.836603e+01 -1.172500e+01 1.000000e+00
         vertex 1.850000e+01 -1.122500e+01 1.000000e+00
      endloop
   endfacet
   facet normal 9.659261e-01 -2.588181e-01 0.000000e+00
      outer loop
         vertex 1.850000e+01 -1.122500e+01 7.000000e+00
         vertex 1.836603e+01 -1.172500e+01 7.000000e+00
         vertex 1.850000e+01 -1.122500e+01 1.000000e+00
      endloop
   endfacet
   facet normal 7.071059e-01 -7.071077e-01 0.000000e+00
      outer loop
         vertex 1.800000e+01 -1.209103e+01 7.000000e+00
         vertex 1.800000e+01 -1.209103e+01 1.000000e+00
         vertex 1.836603e+01 -1.172500e+01 1.000000e+00
      endloop
   endfacet
   facet normal 7.071059e-01 -7.071077e-01 0.000000e+00
      outer loop
         vertex 1.836603e+01 -1.172500e+01 7.000000e+00
         vertex 1.800000e+01 -1.209103e+01 7.000000e+00
         vertex 1.836603e+01 -1.172500e+01 1.000000e+00
      endloop
   endfacet
   facet normal 2.588198e-01 -9.659256e-01 0.000000e+00
      outer loop
         vertex 1.750000e+01 -1.222500e+01 7.000000e+00
         vertex 1.750000e+01 -1.222500e+01 1.000000e+00
         vertex 1.800000e+01 -1.209103e+01 1.000000e+00
      endloop
   endfacet
   facet normal 2.588198e-01 -9.659256e-01 0.000000e+00
      outer loop
         vertex 1.800000e+01 -1.209103e+01 7.000000e+00
         vertex 1.750000e+01 -1.222500e+01 7.000000e+00
         vertex 1.800000e+01 -1.209103e+01 1.000000e+00
      endloop
   endfacet
   facet normal 6.947454e-01 -5.085916e-01 -5.085896e-01
      outer loop
         vertex 1.800000e+01 -1.165801e+01 2.500000e-01
         vertex 1.836603e+01 -1.147500e+01 5.669873e-01
         vertex 1.836603e+01 -1.165801e+01 7.500000e-01
      endloop
   endfacet
   facet normal 6.947465e-01 -5.085893e-01 -5.085904e-01
      outer loop
         vertex 1.800000e+01 -1.197500e+01 5.669873e-01
         vertex 1.800000e+01 -1.165801e+01 2.500000e-01
         vertex 1.836603e+01 -1.165801e+01 7.500000e-01
      endloop
   endfacet
   facet normal 9.636116e-01 -6.918391e-02 -2.581980e-01
      outer loop
         vertex 1.836603e+01 -1.147500e+01 5.669873e-01
         vertex 1.836603e+01 -1.122500e+01 5.000000e-01
         vertex 1.850000e+01 -1.122500e+01 1.000000e+00
      endloop
   endfacet
   facet normal 6.947461e-01 -1.861569e-01 -6.947471e-01
      outer loop
         vertex 1.836603e+01 -1.147500e+01 5.669873e-01
         vertex 1.800000e+01 -1.122500e+01 1.339746e-01
         vertex 1.836603e+01 -1.122500e+01 5.000000e-01
      endloop
   endfacet
   facet normal 2.505628e-01 -2.505628e-01 -9.351131e-01
      outer loop
         vertex 1.750000e+01 -1.172500e+01 1.339746e-01
         vertex 1.750000e+01 -1.122500e+01 0.000000e+00
         vertex 1.800000e+01 -1.122500e+01 1.339746e-01
      endloop
   endfacet
   facet normal 2.505623e-01 -6.845508e-01 -6.845500e-01
      outer loop
         vertex 1.800000e+01 -1.197500e+01 5.669873e-01
         vertex 1.750000e+01 -1.209103e+01 5.000000e-01
         vertex 1.750000e+01 -1.172500e+01 1.339746e-01
      endloop
   endfacet
   facet normal 2.505635e-01 -9.351127e-01 -2.505635e-01
      outer loop
         vertex 1.800000e+01 -1.209103e+01 1.000000e+00
         vertex 1.750000e+01 -1.222500e+01 1.000000e+00
         vertex 1.750000e+01 -1.209103e+01 5.000000e-01
      endloop
   endfacet
   facet normal 6.947454e-01 -6.947472e-01 -1.861589e-01
      outer loop
         vertex 1.836603e+01 -1.165801e+01 7.500000e-01
         vertex 1.836603e+01 -1.172500e+01 1.000000e+00
         vertex 1.800000e+01 -1.209103e+01 1.000000e+00
      endloop
   endfacet
   facet normal 9.636116e-01 -2.581979e-01 -6.918465e-02
      outer loop
         vertex 1.836603e+01 -1.165801e+01 7.500000e-01
         vertex 1.850000e+01 -1.122500e+01 1.000000e+00
         vertex 1.836603e+01 -1.172500e+01 1.000000e+00
      endloop
   endfacet
   facet normal 0.000000e+00 0.000000e+00 0.000000e+00
      outer loop
         vertex 1.836603e+01 -1.165801e+01 7.500000e-01
         vertex 1.850000e+01 -1.122500e+01 1.000000e+00
         vertex 1.850000e+01 -1.122500e+01 1.000000e+00
      endloop
   endfacet
   facet normal 0.000000e+00 0.000000e+00 0.000000e+00
      outer loop
         vertex 1.836603e+01 -1.147500e+01 5.669873e-01
         vertex 1.850000e+01 -1.122500e+01 1.000000e+00
         vertex 1.850000e+01 -1.122500e+01 1.000000e+00
      endloop
   endfacet
   facet normal 9.636116e-01 -1.890145e-01 -1.890137e-01
      outer loop
         vertex 1.850000e+01 -1.122500e+01 1.000000e+00
         vertex 1.836603e+01 -1.165801e+01 7.500000e-01
         vertex 1.836603e+01 -1.147500e+01 5.669873e-01
      endloop
   endfacet
   facet normal 6.947467e-01 -6.947467e-01 -1.861561e-01
      outer loop
         vertex 1.800000e+01 -1.209103e+01 1.000000e+00
         vertex 1.800000e+01 -1.197500e+01 5.669873e-01
         vertex 1.836603e+01 -1.165801e+01 7.500000e-01
      endloop
   endfacet
   facet normal 6.947459e-01 -1.861572e-01 -6.947471e-01
      outer loop
         vertex 1.800000e+01 -1.122500e+01 1.339746e-01
         vertex 1.836603e+01 -1.147500e+01 5.669873e-01
         vertex 1.800000e+01 -1.165801e+01 2.500000e-01
      endloop
   endfacet
   facet normal 2.505638e-01 -6.845494e-01 -6.845509e-01
      outer loop
         vertex 1.750000e+01 -1.172500e+01 1.339746e-01
         vertex 1.800000e+01 -1.165801e+01 2.500000e-01
         vertex 1.800000e+01 -1.197500e+01 5.669873e-01
      endloop
   endfacet
   facet normal 2.505632e-01 -2.505632e-01 -9.351129e-01
      outer loop
         vertex 1.800000e+01 -1.165801e+01 2.500000e-01
         vertex 1.750000e+01 -1.172500e+01 1.339746e-01
         vertex 1.800000e+01 -1.122500e+01 1.339746e-01
      endloop
   endfacet
   facet normal 2.505620e-01 -9.351136e-01 -2.505620e-01
      outer loop
         vertex 1.800000e+01 -1.209103e+01 1.000000e+00
         vertex 1.750000e+01 -1.209103e+01 5.000000e-01
         vertex 1.800000e+01 -1.197500e+01 5.669873e-01
      endloop
   endfacet
   facet normal 9.238740e-01 3.556048e-03 -3.826802e-01
      outer loop
         vertex 1.836603e+01 -1.122500e+01 5.000000e-01
         vertex 1.820711e+01 7.775000e+00 2.928932e-01
         vertex 1.850000e+01 7.775000e+00 1.000000e+00
      endloop
   endfacet
   facet normal 3.826807e-01 3.556037e-03 -9.238738e-01
      outer loop
         vertex 1.800000e+01 -1.122500e+01 1.339746e-01
         vertex 1.750000e+01 7.775000e+00 -5.921190e-16
         vertex 1.820711e+01 7.775000e+00 2.928932e-01
      endloop
   endfacet
   facet normal 2.588190e-01 -3.010226e-17 -9.659258e-01
      outer loop
         vertex 1.800000e+01 -1.122500e+01 1.339746e-01
         vertex 1.750000e+01 -1.122500e+01 0.000000e+00
         vertex 1.750000e+01 7.775000e+00 -5.921190e-16
      endloop
   endfacet
   facet normal 7.071051e-01 -1.793393e-03 -7.071061e-01
      outer loop
         vertex 1.820711e+01 7.775000e+00 2.928932e-01
         vertex 1.836603e+01 -1.122500e+01 5.000000e-01
         vertex 1.800000e+01 -1.122500e+01 1.339746e-01
      endloop
   endfacet
   facet normal 9.659261e-01 0.000000e+00 -2.588181e-01
      outer loop
         vertex 1.850000e+01 7.775000e+00 1.000000e+00
         vertex 1.850000e+01 -1.122500e+01 1.000000e+00
         vertex 1.836603e+01 -1.122500e+01 5.000000e-01
      endloop
   endfacet
endsolid
