solid 
   facet normal 0.000000e+00 1.000000e+00 0.000000e+00
      outer loop
         vertex -1.850000e+01 8.050000e+00 1.000000e+00
         vertex -1.850000e+01 8.050000e+00 7.000000e+00
         vertex -1.590954e+01 8.050000e+00 4.513030e+00
      endloop
   endfacet
   facet normal -0.000000e+00 1.000000e+00 0.000000e+00
      outer loop
         vertex -1.850000e+01 8.050000e+00 7.000000e+00
         vertex -1.836603e+01 8.050000e+00 7.500000e+00
         vertex -1.800000e+01 8.050000e+00 7.866025e+00
      endloop
   endfacet
   facet normal 0.000000e+00 1.000000e+00 0.000000e+00
      outer loop
         vertex -1.800000e+01 8.050000e+00 7.866025e+00
         vertex -1.750000e+01 8.050000e+00 8.000000e+00
         vertex -1.850000e+01 8.050000e+00 7.000000e+00
      endloop
   endfacet
   facet normal 0.000000e+00 1.000000e+00 0.000000e+00
      outer loop
         vertex -1.750000e+01 8.050000e+00 8.000000e+00
         vertex -6.741476e+00 8.050000e+00 8.000000e+00
         vertex -1.423953e+01 8.050000e+00 5.477211e+00
      endloop
   endfacet
   facet normal 0.000000e+00 1.000000e+00 -0.000000e+00
      outer loop
         vertex -6.741476e+00 8.050000e+00 8.000000e+00
         vertex -6.741476e+00 8.050000e+00 0.000000e+00
         vertex -1.300000e+01 8.050000e+00 4.000000e+00
      endloop
   endfacet
   facet normal 0.000000e+00 1.000000e+00 0.000000e+00
      outer loop
         vertex -6.741476e+00 8.050000e+00 0.000000e+00
         vertex -1.750000e+01 8.050000e+00 0.000000e+00
         vertex -1.423953e+01 8.050000e+00 2.522788e+00
      endloop
   endfacet
   facet normal -0.000000e+00 1.000000e+00 -0.000000e+00
      outer loop
         vertex -1.750000e+01 8.050000e+00 0.000000e+00
         vertex -1.800000e+01 8.050000e+00 1.339746e-01
         vertex -1.850000e+01 8.050000e+00 1.000000e+00
      endloop
   endfacet
   facet normal -0.000000e+00 1.000000e+00 -0.000000e+00
      outer loop
         vertex -1.800000e+01 8.050000e+00 1.339746e-01
         vertex -1.836603e+01 8.050000e+00 5.000000e-01
         vertex -1.850000e+01 8.050000e+00 1.000000e+00
      endloop
   endfacet
   facet normal 0.000000e+00 1.000000e+00 0.000000e+00
      outer loop
         vertex -1.335093e+01 8.050000e+00 3.035819e+00
         vertex -1.300000e+01 8.050000e+00 4.000000e+00
         vertex -6.741476e+00 8.050000e+00 0.000000e+00
      endloop
   endfacet
   facet normal -0.000000e+00 1.000000e+00 0.000000e+00
      outer loop
         vertex -1.300000e+01 8.050000e+00 4.000000e+00
         vertex -1.335093e+01 8.050000e+00 4.964181e+00
         vertex -6.741476e+00 8.050000e+00 8.000000e+00
      endloop
   endfacet
   facet normal -0.000000e+00 1.000000e+00 0.000000e+00
      outer loop
         vertex -1.335093e+01 8.050000e+00 4.964181e+00
         vertex -1.423953e+01 8.050000e+00 5.477211e+00
         vertex -6.741476e+00 8.050000e+00 8.000000e+00
      endloop
   endfacet
   facet normal 0.000000e+00 1.000000e+00 -0.000000e+00
      outer loop
         vertex -1.423953e+01 8.050000e+00 5.477211e+00
         vertex -1.525000e+01 8.050000e+00 5.299038e+00
         vertex -1.750000e+01 8.050000e+00 8.000000e+00
      endloop
   endfacet
   facet normal 0.000000e+00 1.000000e+00 -0.000000e+00
      outer loop
         vertex -1.525000e+01 8.050000e+00 5.299038e+00
         vertex -1.590954e+01 8.050000e+00 4.513030e+00
         vertex -1.850000e+01 8.050000e+00 7.000000e+00
      endloop
   endfacet
   facet normal 0.000000e+00 1.000000e+00 -0.000000e+00
      outer loop
         vertex -1.590954e+01 8.050000e+00 4.513030e+00
         vertex -1.590954e+01 8.050000e+00 3.486970e+00
         vertex -1.850000e+01 8.050000e+00 1.000000e+00
      endloop
   endfacet
   facet normal 0.000000e+00 1.000000e+00 0.000000e+00
      outer loop
         vertex -1.590954e+01 8.050000e+00 3.486970e+00
         vertex -1.525000e+01 8.050000e+00 2.700962e+00
         vertex -1.850000e+01 8.050000e+00 1.000000e+00
      endloop
   endfacet
   facet normal 0.000000e+00 1.000000e+00 0.000000e+00
      outer loop
         vertex -1.525000e+01 8.050000e+00 2.700962e+00
         vertex -1.423953e+01 8.050000e+00 2.522788e+00
         vertex -1.750000e+01 8.050000e+00 0.000000e+00
      endloop
   endfacet
   facet normal 0.000000e+00 1.000000e+00 0.000000e+00
      outer loop
         vertex -1.423953e+01 8.050000e+00 2.522788e+00
         vertex -1.335093e+01 8.050000e+00 3.035819e+00
         vertex -6.741476e+00 8.050000e+00 0.000000e+00
      endloop
   endfacet
   facet normal 0.000000e+00 1.000000e+00 0.000000e+00
      outer loop
         vertex -1.850000e+01 8.050000e+00 7.000000e+00
         vertex -1.750000e+01 8.050000e+00 8.000000e+00
         vertex -1.525000e+01 8.050000e+00 5.299038e+00
      endloop
   endfacet
   facet normal -0.000000e+00 1.000000e+00 0.000000e+00
      outer loop
         vertex -1.750000e+01 8.050000e+00 0.000000e+00
         vertex -1.850000e+01 8.050000e+00 1.000000e+00
         vertex -1.525000e+01 8.050000e+00 2.700962e+00
      endloop
   endfacet
   facet normal 0.000000e+00 1.000000e+00 -0.000000e+00
      outer loop
         vertex 1.850000e+01 8.050000e+00 7.000000e+00
         vertex 1.850000e+01 8.050000e+00 1.000000e+00
         vertex 1.600000e+01 8.050000e+00 4.000000e+00
      endloop
   endfacet
   facet normal 0.000000e+00 1.000000e+00 -0.000000e+00
      outer loop
         vertex 1.850000e+01 8.050000e+00 1.000000e+00
         vertex 1.836603e+01 8.050000e+00 5.000000e-01
         vertex 1.800000e+01 8.050000e+00 1.339746e-01
      endloop
   endfacet
   facet normal 0.000000e+00 1.000000e+00 0.000000e+00
      outer loop
         vertex 1.800000e+01 8.050000e+00 1.339746e-01
         vertex 1.750000e+01 8.050000e+00 6.106227e-16
         vertex 1.850000e+01 8.050000e+00 1.000000e+00
      endloop
   endfacet
   facet normal 0.000000e+00 1.000000e+00 0.000000e+00
      outer loop
         vertex 1.750000e+01 8.050000e+00 6.106227e-16
         vertex 6.741476e+00 8.050000e+00 0.000000e+00
         vertex 1.375000e+01 8.050000e+00 2.700962e+00
      endloop
   endfacet
   facet normal 0.000000e+00 1.000000e+00 0.000000e+00
      outer loop
         vertex 6.741476e+00 8.050000e+00 0.000000e+00
         vertex 6.741476e+00 8.050000e+00 8.000000e+00
         vertex 1.309046e+01 8.050000e+00 4.513030e+00
      endloop
   endfacet
   facet normal 0.000000e+00 1.000000e+00 0.000000e+00
      outer loop
         vertex 6.741476e+00 8.050000e+00 8.000000e+00
         vertex 1.750000e+01 8.050000e+00 8.000000e+00
         vertex 1.375000e+01 8.050000e+00 5.299038e+00
      endloop
   endfacet
   facet normal 0.000000e+00 1.000000e+00 0.000000e+00
      outer loop
         vertex 1.750000e+01 8.050000e+00 8.000000e+00
         vertex 1.800000e+01 8.050000e+00 7.866025e+00
         vertex 1.850000e+01 8.050000e+00 7.000000e+00
      endloop
   endfacet
   facet normal 0.000000e+00 1.000000e+00 0.000000e+00
      outer loop
         vertex 1.800000e+01 8.050000e+00 7.866025e+00
         vertex 1.836603e+01 8.050000e+00 7.500000e+00
         vertex 1.850000e+01 8.050000e+00 7.000000e+00
      endloop
   endfacet
   facet normal 0.000000e+00 1.000000e+00 0.000000e+00
      outer loop
         vertex 1.564907e+01 8.050000e+00 3.035819e+00
         vertex 1.600000e+01 8.050000e+00 4.000000e+00
         vertex 1.850000e+01 8.050000e+00 1.000000e+00
      endloop
   endfacet
   facet normal -0.000000e+00 1.000000e+00 0.000000e+00
      outer loop
         vertex 1.600000e+01 8.050000e+00 4.000000e+00
         vertex 1.564907e+01 8.050000e+00 4.964181e+00
         vertex 1.850000e+01 8.050000e+00 7.000000e+00
      endloop
   endfacet
   facet normal -0.000000e+00 1.000000e+00 0.000000e+00
      outer loop
         vertex 1.564907e+01 8.050000e+00 4.964181e+00
         vertex 1.476047e+01 8.050000e+00 5.477211e+00
         vertex 1.750000e+01 8.050000e+00 8.000000e+00
      endloop
   endfacet
   facet normal 0.000000e+00 1.000000e+00 0.000000e+00
      outer loop
         vertex 1.476047e+01 8.050000e+00 5.477211e+00
         vertex 1.375000e+01 8.050000e+00 5.299038e+00
         vertex 1.750000e+01 8.050000e+00 8.000000e+00
      endloop
   endfacet
   facet normal 0.000000e+00 1.000000e+00 -0.000000e+00
      outer loop
         vertex 1.375000e+01 8.050000e+00 5.299038e+00
         vertex 1.309046e+01 8.050000e+00 4.513030e+00
         vertex 6.741476e+00 8.050000e+00 8.000000e+00
      endloop
   endfacet
   facet normal 0.000000e+00 1.000000e+00 -0.000000e+00
      outer loop
         vertex 1.309046e+01 8.050000e+00 4.513030e+00
         vertex 1.309046e+01 8.050000e+00 3.486970e+00
         vertex 6.741476e+00 8.050000e+00 0.000000e+00
      endloop
   endfacet
   facet normal 0.000000e+00 1.000000e+00 0.000000e+00
      outer loop
         vertex 1.309046e+01 8.050000e+00 3.486970e+00
         vertex 1.375000e+01 8.050000e+00 2.700962e+00
         vertex 6.741476e+00 8.050000e+00 0.000000e+00
      endloop
   endfacet
   facet normal 0.000000e+00 1.000000e+00 0.000000e+00
      outer loop
         vertex 1.375000e+01 8.050000e+00 2.700962e+00
         vertex 1.476047e+01 8.050000e+00 2.522788e+00
         vertex 1.750000e+01 8.050000e+00 6.106227e-16
      endloop
   endfacet
   facet normal 0.000000e+00 1.000000e+00 0.000000e+00
      outer loop
         vertex 1.476047e+01 8.050000e+00 2.522788e+00
         vertex 1.564907e+01 8.050000e+00 3.035819e+00
         vertex 1.750000e+01 8.050000e+00 6.106227e-16
      endloop
   endfacet
   facet normal 0.000000e+00 1.000000e+00 -0.000000e+00
      outer loop
         vertex 1.850000e+01 8.050000e+00 1.000000e+00
         vertex 1.750000e+01 8.050000e+00 6.106227e-16
         vertex 1.564907e+01 8.050000e+00 3.035819e+00
      endloop
   endfacet
   facet normal 0.000000e+00 1.000000e+00 0.000000e+00
      outer loop
         vertex 1.750000e+01 8.050000e+00 8.000000e+00
         vertex 1.850000e+01 8.050000e+00 7.000000e+00
         vertex 1.564907e+01 8.050000e+00 4.964181e+00
      endloop
   endfacet
   facet normal -9.396927e-01 0.000000e+00 3.420199e-01
      outer loop
         vertex -1.335093e+01 8.050000e+00 3.035819e+00
         vertex -1.335093e+01 -6.950000e+00 3.035819e+00
         vertex -1.300000e+01 -6.950000e+00 4.000000e+00
      endloop
   endfacet
   facet normal -9.396927e-01 0.000000e+00 3.420199e-01
      outer loop
         vertex -1.300000e+01 8.050000e+00 4.000000e+00
         vertex -1.335093e+01 8.050000e+00 3.035819e+00
         vertex -1.300000e+01 -6.950000e+00 4.000000e+00
      endloop
   endfacet
   facet normal -5.000000e-01 0.000000e+00 8.660254e-01
      outer loop
         vertex -1.423953e+01 8.050000e+00 2.522788e+00
         vertex -1.423953e+01 -6.950000e+00 2.522788e+00
         vertex -1.335093e+01 -6.950000e+00 3.035819e+00
      endloop
   endfacet
   facet normal -5.000000e-01 0.000000e+00 8.660254e-01
      outer loop
         vertex -1.335093e+01 8.050000e+00 3.035819e+00
         vertex -1.423953e+01 8.050000e+00 2.522788e+00
         vertex -1.335093e+01 -6.950000e+00 3.035819e+00
      endloop
   endfacet
   facet normal 1.736482e-01 -0.000000e+00 9.848078e-01
      outer loop
         vertex -1.525000e+01 8.050000e+00 2.700962e+00
         vertex -1.525000e+01 -6.950000e+00 2.700962e+00
         vertex -1.423953e+01 -6.950000e+00 2.522788e+00
      endloop
   endfacet
   facet normal 1.736482e-01 0.000000e+00 9.848078e-01
      outer loop
         vertex -1.423953e+01 8.050000e+00 2.522788e+00
         vertex -1.525000e+01 8.050000e+00 2.700962e+00
         vertex -1.423953e+01 -6.950000e+00 2.522788e+00
      endloop
   endfacet
   facet normal 7.660443e-01 -0.000000e+00 6.427878e-01
      outer loop
         vertex -1.590954e+01 8.050000e+00 3.486970e+00
         vertex -1.590954e+01 -6.950000e+00 3.486970e+00
         vertex -1.525000e+01 -6.950000e+00 2.700962e+00
      endloop
   endfacet
   facet normal 7.660443e-01 0.000000e+00 6.427878e-01
      outer loop
         vertex -1.525000e+01 8.050000e+00 2.700962e+00
         vertex -1.590954e+01 8.050000e+00 3.486970e+00
         vertex -1.525000e+01 -6.950000e+00 2.700962e+00
      endloop
   endfacet
   facet normal 1.000000e+00 -0.000000e+00 0.000000e+00
      outer loop
         vertex -1.590954e+01 8.050000e+00 4.513030e+00
         vertex -1.590954e+01 -6.950000e+00 4.513030e+00
         vertex -1.590954e+01 -6.950000e+00 3.486970e+00
      endloop
   endfacet
   facet normal 1.000000e+00 0.000000e+00 0.000000e+00
      outer loop
         vertex -1.590954e+01 8.050000e+00 3.486970e+00
         vertex -1.590954e+01 8.050000e+00 4.513030e+00
         vertex -1.590954e+01 -6.950000e+00 3.486970e+00
      endloop
   endfacet
   facet normal 7.660443e-01 0.000000e+00 -6.427878e-01
      outer loop
         vertex -1.525000e+01 8.050000e+00 5.299038e+00
         vertex -1.525000e+01 -6.950000e+00 5.299038e+00
         vertex -1.590954e+01 -6.950000e+00 4.513030e+00
      endloop
   endfacet
   facet normal 7.660443e-01 0.000000e+00 -6.427878e-01
      outer loop
         vertex -1.590954e+01 8.050000e+00 4.513030e+00
         vertex -1.525000e+01 8.050000e+00 5.299038e+00
         vertex -1.590954e+01 -6.950000e+00 4.513030e+00
      endloop
   endfacet
   facet normal 1.736482e-01 0.000000e+00 -9.848078e-01
      outer loop
         vertex -1.423953e+01 8.050000e+00 5.477211e+00
         vertex -1.423953e+01 -6.950000e+00 5.477211e+00
         vertex -1.525000e+01 -6.950000e+00 5.299038e+00
      endloop
   endfacet
   facet normal 1.736482e-01 0.000000e+00 -9.848078e-01
      outer loop
         vertex -1.525000e+01 8.050000e+00 5.299038e+00
         vertex -1.423953e+01 8.050000e+00 5.477211e+00
         vertex -1.525000e+01 -6.950000e+00 5.299038e+00
      endloop
   endfacet
   facet normal -4.999998e-01 0.000000e+00 -8.660255e-01
      outer loop
         vertex -1.335093e+01 8.050000e+00 4.964181e+00
         vertex -1.335093e+01 -6.950000e+00 4.964181e+00
         vertex -1.423953e+01 -6.950000e+00 5.477211e+00
      endloop
   endfacet
   facet normal -4.999998e-01 0.000000e+00 -8.660255e-01
      outer loop
         vertex -1.423953e+01 8.050000e+00 5.477211e+00
         vertex -1.335093e+01 8.050000e+00 4.964181e+00
         vertex -1.423953e+01 -6.950000e+00 5.477211e+00
      endloop
   endfacet
   facet normal -9.396927e-01 0.000000e+00 -3.420199e-01
      outer loop
         vertex -1.300000e+01 8.050000e+00 4.000000e+00
         vertex -1.300000e+01 -6.950000e+00 4.000000e+00
         vertex -1.335093e+01 -6.950000e+00 4.964181e+00
      endloop
   endfacet
   facet normal -9.396927e-01 0.000000e+00 -3.420199e-01
      outer loop
         vertex -1.335093e+01 8.050000e+00 4.964181e+00
         vertex -1.300000e+01 8.050000e+00 4.000000e+00
         vertex -1.335093e+01 -6.950000e+00 4.964181e+00
      endloop
   endfacet
   facet normal -9.396927e-01 0.000000e+00 3.420199e-01
      outer loop
         vertex 1.564907e+01 8.050000e+00 3.035819e+00
         vertex 1.564907e+01 -6.950000e+00 3.035819e+00
         vertex 1.600000e+01 -6.950000e+00 4.000000e+00
      endloop
   endfacet
   facet normal -9.396927e-01 0.000000e+00 3.420199e-01
      outer loop
         vertex 1.600000e+01 8.050000e+00 4.000000e+00
         vertex 1.564907e+01 8.050000e+00 3.035819e+00
         vertex 1.600000e+01 -6.950000e+00 4.000000e+00
      endloop
   endfacet
   facet normal -5.000000e-01 0.000000e+00 8.660254e-01
      outer loop
         vertex 1.476047e+01 8.050000e+00 2.522788e+00
         vertex 1.476047e+01 -6.950000e+00 2.522788e+00
         vertex 1.564907e+01 -6.950000e+00 3.035819e+00
      endloop
   endfacet
   facet normal -5.000000e-01 0.000000e+00 8.660254e-01
      outer loop
         vertex 1.564907e+01 8.050000e+00 3.035819e+00
         vertex 1.476047e+01 8.050000e+00 2.522788e+00
         vertex 1.564907e+01 -6.950000e+00 3.035819e+00
      endloop
   endfacet
   facet normal 1.736482e-01 -0.000000e+00 9.848078e-01
      outer loop
         vertex 1.375000e+01 8.050000e+00 2.700962e+00
         vertex 1.375000e+01 -6.950000e+00 2.700962e+00
         vertex 1.476047e+01 -6.950000e+00 2.522788e+00
      endloop
   endfacet
   facet normal 1.736482e-01 0.000000e+00 9.848078e-01
      outer loop
         vertex 1.476047e+01 8.050000e+00 2.522788e+00
         vertex 1.375000e+01 8.050000e+00 2.700962e+00
         vertex 1.476047e+01 -6.950000e+00 2.522788e+00
      endloop
   endfacet
   facet normal 7.660443e-01 -0.000000e+00 6.427878e-01
      outer loop
         vertex 1.309046e+01 8.050000e+00 3.486970e+00
         vertex 1.309046e+01 -6.950000e+00 3.486970e+00
         vertex 1.375000e+01 -6.950000e+00 2.700962e+00
      endloop
   endfacet
   facet normal 7.660443e-01 0.000000e+00 6.427878e-01
      outer loop
         vertex 1.375000e+01 8.050000e+00 2.700962e+00
         vertex 1.309046e+01 8.050000e+00 3.486970e+00
         vertex 1.375000e+01 -6.950000e+00 2.700962e+00
      endloop
   endfacet
   facet normal 1.000000e+00 -0.000000e+00 0.000000e+00
      outer loop
         vertex 1.309046e+01 8.050000e+00 4.513030e+00
         vertex 1.309046e+01 -6.950000e+00 4.513030e+00
         vertex 1.309046e+01 -6.950000e+00 3.486970e+00
      endloop
   endfacet
   facet normal 1.000000e+00 0.000000e+00 0.000000e+00
      outer loop
         vertex 1.309046e+01 8.050000e+00 3.486970e+00
         vertex 1.309046e+01 8.050000e+00 4.513030e+00
         vertex 1.309046e+01 -6.950000e+00 3.486970e+00
      endloop
   endfacet
   facet normal 7.660443e-01 0.000000e+00 -6.427878e-01
      outer loop
         vertex 1.375000e+01 8.050000e+00 5.299038e+00
         vertex 1.375000e+01 -6.950000e+00 5.299038e+00
         vertex 1.309046e+01 -6.950000e+00 4.513030e+00
      endloop
   endfacet
   facet normal 7.660443e-01 0.000000e+00 -6.427878e-01
      outer loop
         vertex 1.309046e+01 8.050000e+00 4.513030e+00
         vertex 1.375000e+01 8.050000e+00 5.299038e+00
         vertex 1.309046e+01 -6.950000e+00 4.513030e+00
      endloop
   endfacet
   facet normal 1.736482e-01 0.000000e+00 -9.848078e-01
      outer loop
         vertex 1.476047e+01 8.050000e+00 5.477211e+00
         vertex 1.476047e+01 -6.950000e+00 5.477211e+00
         vertex 1.375000e+01 -6.950000e+00 5.299038e+00
      endloop
   endfacet
   facet normal 1.736482e-01 0.000000e+00 -9.848078e-01
      outer loop
         vertex 1.375000e+01 8.050000e+00 5.299038e+00
         vertex 1.476047e+01 8.050000e+00 5.477211e+00
         vertex 1.375000e+01 -6.950000e+00 5.299038e+00
      endloop
   endfacet
   facet normal -4.999998e-01 0.000000e+00 -8.660255e-01
      outer loop
         vertex 1.564907e+01 8.050000e+00 4.964181e+00
         vertex 1.564907e+01 -6.950000e+00 4.964181e+00
         vertex 1.476047e+01 -6.950000e+00 5.477211e+00
      endloop
   endfacet
   facet normal -4.999998e-01 0.000000e+00 -8.660255e-01
      outer loop
         vertex 1.476047e+01 8.050000e+00 5.477211e+00
         vertex 1.564907e+01 8.050000e+00 4.964181e+00
         vertex 1.476047e+01 -6.950000e+00 5.477211e+00
      endloop
   endfacet
   facet normal -9.396927e-01 0.000000e+00 -3.420199e-01
      outer loop
         vertex 1.600000e+01 8.050000e+00 4.000000e+00
         vertex 1.600000e+01 -6.950000e+00 4.000000e+00
         vertex 1.564907e+01 -6.950000e+00 4.964181e+00
      endloop
   endfacet
   facet normal -9.396927e-01 0.000000e+00 -3.420199e-01
      outer loop
         vertex 1.564907e+01 8.050000e+00 4.964181e+00
         vertex 1.600000e+01 8.050000e+00 4.000000e+00
         vertex 1.564907e+01 -6.950000e+00 4.964181e+00
      endloop
   endfacet
   facet normal 5.675710e-17 5.059167e-17 -1.000000e+00
      outer loop
         vertex 8.768894e+00 5.775507e+00 0.000000e+00
         vertex 6.741476e+00 8.050000e+00 0.000000e+00
         vertex 1.750000e+01 8.050000e+00 6.106227e-16
      endloop
   endfacet
   facet normal 6.235259e-17 2.911226e-17 -1.000000e+00
      outer loop
         vertex 1.750000e+01 8.050000e+00 6.106227e-16
         vertex 1.005792e+01 3.014681e+00 0.000000e+00
         vertex 8.768894e+00 5.775507e+00 0.000000e+00
      endloop
   endfacet
   facet normal 7.464387e-17 1.094604e-17 -1.000000e+00
      outer loop
         vertex 1.750000e+01 8.050000e+00 6.106227e-16
         vertex 1.050000e+01 -2.618147e-15 0.000000e+00
         vertex 1.005792e+01 3.014681e+00 0.000000e+00
      endloop
   endfacet
   facet normal 0.000000e+00 0.000000e+00 -1.000000e+00
      outer loop
         vertex 1.750000e+01 -1.205000e+01 0.000000e+00
         vertex 1.005792e+01 -3.014681e+00 0.000000e+00
         vertex 1.050000e+01 -2.618147e-15 0.000000e+00
      endloop
   endfacet
   facet normal 0.000000e+00 0.000000e+00 -1.000000e+00
      outer loop
         vertex 1.750000e+01 -1.205000e+01 0.000000e+00
         vertex 8.768894e+00 -5.775507e+00 0.000000e+00
         vertex 1.005792e+01 -3.014681e+00 0.000000e+00
      endloop
   endfacet
   facet normal 0.000000e+00 0.000000e+00 -1.000000e+00
      outer loop
         vertex 1.750000e+01 -1.205000e+01 0.000000e+00
         vertex 6.741476e+00 -8.050000e+00 0.000000e+00
         vertex 8.768894e+00 -5.775507e+00 0.000000e+00
      endloop
   endfacet
   facet normal 0.000000e+00 -0.000000e+00 -1.000000e+00
      outer loop
         vertex -1.750000e+01 -1.205000e+01 0.000000e+00
         vertex -6.741476e+00 -8.050000e+00 0.000000e+00
         vertex 6.741476e+00 -8.050000e+00 0.000000e+00
      endloop
   endfacet
   facet normal 0.000000e+00 -0.000000e+00 -1.000000e+00
      outer loop
         vertex -1.750000e+01 -1.205000e+01 0.000000e+00
         vertex -8.768894e+00 -5.775507e+00 0.000000e+00
         vertex -6.741476e+00 -8.050000e+00 0.000000e+00
      endloop
   endfacet
   facet normal 0.000000e+00 -0.000000e+00 -1.000000e+00
      outer loop
         vertex -1.750000e+01 -1.205000e+01 0.000000e+00
         vertex -1.005792e+01 -3.014681e+00 0.000000e+00
         vertex -8.768894e+00 -5.775507e+00 0.000000e+00
      endloop
   endfacet
   facet normal 0.000000e+00 -0.000000e+00 -1.000000e+00
      outer loop
         vertex -1.750000e+01 -1.205000e+01 0.000000e+00
         vertex -1.050000e+01 6.429396e-16 0.000000e+00
         vertex -1.005792e+01 -3.014681e+00 0.000000e+00
      endloop
   endfacet
   facet normal -0.000000e+00 0.000000e+00 -1.000000e+00
      outer loop
         vertex -1.750000e+01 8.050000e+00 0.000000e+00
         vertex -1.005792e+01 3.014681e+00 0.000000e+00
         vertex -1.050000e+01 6.429396e-16 0.000000e+00
      endloop
   endfacet
   facet normal -0.000000e+00 0.000000e+00 -1.000000e+00
      outer loop
         vertex -1.750000e+01 8.050000e+00 0.000000e+00
         vertex -8.768894e+00 5.775507e+00 0.000000e+00
         vertex -1.005792e+01 3.014681e+00 0.000000e+00
      endloop
   endfacet
   facet normal -0.000000e+00 0.000000e+00 -1.000000e+00
      outer loop
         vertex -1.750000e+01 8.050000e+00 0.000000e+00
         vertex -6.741476e+00 8.050000e+00 0.000000e+00
         vertex -8.768894e+00 5.775507e+00 0.000000e+00
      endloop
   endfacet
   facet normal 0.000000e+00 0.000000e+00 -1.000000e+00
      outer loop
         vertex -1.050000e+01 6.429396e-16 0.000000e+00
         vertex -1.750000e+01 -1.205000e+01 0.000000e+00
         vertex -1.750000e+01 8.050000e+00 0.000000e+00
      endloop
   endfacet
   facet normal 0.000000e+00 0.000000e+00 -1.000000e+00
      outer loop
         vertex 6.741476e+00 -8.050000e+00 0.000000e+00
         vertex 1.750000e+01 -1.205000e+01 0.000000e+00
         vertex -1.750000e+01 -1.205000e+01 0.000000e+00
      endloop
   endfacet
   facet normal 5.229569e-17 3.037924e-17 -1.000000e+00
      outer loop
         vertex 1.050000e+01 -2.618147e-15 0.000000e+00
         vertex 1.750000e+01 8.050000e+00 6.106227e-16
         vertex 1.750000e+01 -1.205000e+01 0.000000e+00
      endloop
   endfacet
   facet normal -1.000000e+00 0.000000e+00 0.000000e+00
      outer loop
         vertex -1.850000e+01 -1.205000e+01 1.000000e+00
         vertex -1.850000e+01 -1.205000e+01 7.000000e+00
         vertex -1.850000e+01 8.050000e+00 7.000000e+00
      endloop
   endfacet
   facet normal -1.000000e+00 0.000000e+00 0.000000e+00
      outer loop
         vertex -1.850000e+01 8.050000e+00 7.000000e+00
         vertex -1.850000e+01 8.050000e+00 1.000000e+00
         vertex -1.850000e+01 -1.205000e+01 1.000000e+00
      endloop
   endfacet
   facet normal -0.000000e+00 0.000000e+00 1.000000e+00
      outer loop
         vertex -6.741476e+00 8.050000e+00 8.000000e+00
         vertex -1.750000e+01 8.050000e+00 8.000000e+00
         vertex -8.768894e+00 5.775507e+00 8.000000e+00
      endloop
   endfacet
   facet normal 0.000000e+00 0.000000e+00 1.000000e+00
      outer loop
         vertex -1.750000e+01 8.050000e+00 8.000000e+00
         vertex -1.750000e+01 -1.205000e+01 8.000000e+00
         vertex -1.050000e+01 6.429396e-16 8.000000e+00
      endloop
   endfacet
   facet normal 0.000000e+00 0.000000e+00 1.000000e+00
      outer loop
         vertex -1.750000e+01 -1.205000e+01 8.000000e+00
         vertex 1.750000e+01 -1.205000e+01 8.000000e+00
         vertex 6.741476e+00 -8.050000e+00 8.000000e+00
      endloop
   endfacet
   facet normal 0.000000e+00 0.000000e+00 1.000000e+00
      outer loop
         vertex 1.750000e+01 -1.205000e+01 8.000000e+00
         vertex 1.750000e+01 8.050000e+00 8.000000e+00
         vertex 1.050000e+01 -2.618147e-15 8.000000e+00
      endloop
   endfacet
   facet normal -0.000000e+00 0.000000e+00 1.000000e+00
      outer loop
         vertex 1.750000e+01 8.050000e+00 8.000000e+00
         vertex 6.741476e+00 8.050000e+00 8.000000e+00
         vertex 8.768894e+00 5.775507e+00 8.000000e+00
      endloop
   endfacet
   facet normal 0.000000e+00 -0.000000e+00 1.000000e+00
      outer loop
         vertex 8.768894e+00 5.775507e+00 8.000000e+00
         vertex 1.005792e+01 3.014681e+00 8.000000e+00
         vertex 1.750000e+01 8.050000e+00 8.000000e+00
      endloop
   endfacet
   facet normal 0.000000e+00 -0.000000e+00 1.000000e+00
      outer loop
         vertex 1.005792e+01 3.014681e+00 8.000000e+00
         vertex 1.050000e+01 -2.618147e-15 8.000000e+00
         vertex 1.750000e+01 8.050000e+00 8.000000e+00
      endloop
   endfacet
   facet normal -0.000000e+00 0.000000e+00 1.000000e+00
      outer loop
         vertex 1.050000e+01 -2.618147e-15 8.000000e+00
         vertex 1.005792e+01 -3.014681e+00 8.000000e+00
         vertex 1.750000e+01 -1.205000e+01 8.000000e+00
      endloop
   endfacet
   facet normal -0.000000e+00 0.000000e+00 1.000000e+00
      outer loop
         vertex 1.005792e+01 -3.014681e+00 8.000000e+00
         vertex 8.768894e+00 -5.775507e+00 8.000000e+00
         vertex 1.750000e+01 -1.205000e+01 8.000000e+00
      endloop
   endfacet
   facet normal -0.000000e+00 0.000000e+00 1.000000e+00
      outer loop
         vertex 8.768894e+00 -5.775507e+00 8.000000e+00
         vertex 6.741476e+00 -8.050000e+00 8.000000e+00
         vertex 1.750000e+01 -1.205000e+01 8.000000e+00
      endloop
   endfacet
   facet normal -0.000000e+00 0.000000e+00 1.000000e+00
      outer loop
         vertex 6.741476e+00 -8.050000e+00 8.000000e+00
         vertex -6.741476e+00 -8.050000e+00 8.000000e+00
         vertex -1.750000e+01 -1.205000e+01 8.000000e+00
      endloop
   endfacet
   facet normal 0.000000e+00 0.000000e+00 1.000000e+00
      outer loop
         vertex -6.741476e+00 -8.050000e+00 8.000000e+00
         vertex -8.768894e+00 -5.775507e+00 8.000000e+00
         vertex -1.750000e+01 -1.205000e+01 8.000000e+00
      endloop
   endfacet
   facet normal 0.000000e+00 0.000000e+00 1.000000e+00
      outer loop
         vertex -8.768894e+00 -5.775507e+00 8.000000e+00
         vertex -1.005792e+01 -3.014681e+00 8.000000e+00
         vertex -1.750000e+01 -1.205000e+01 8.000000e+00
      endloop
   endfacet
   facet normal 0.000000e+00 0.000000e+00 1.000000e+00
      outer loop
         vertex -1.005792e+01 -3.014681e+00 8.000000e+00
         vertex -1.050000e+01 6.429396e-16 8.000000e+00
         vertex -1.750000e+01 -1.205000e+01 8.000000e+00
      endloop
   endfacet
   facet normal 0.000000e+00 0.000000e+00 1.000000e+00
      outer loop
         vertex -1.050000e+01 6.429396e-16 8.000000e+00
         vertex -1.005792e+01 3.014681e+00 8.000000e+00
         vertex -1.750000e+01 8.050000e+00 8.000000e+00
      endloop
   endfacet
   facet normal 0.000000e+00 0.000000e+00 1.000000e+00
      outer loop
         vertex -1.005792e+01 3.014681e+00 8.000000e+00
         vertex -8.768894e+00 5.775507e+00 8.000000e+00
         vertex -1.750000e+01 8.050000e+00 8.000000e+00
      endloop
   endfacet
   facet normal 7.464884e-01 6.653985e-01 -0.000000e+00
      outer loop
         vertex -6.741476e+00 -8.050000e+00 0.000000e+00
         vertex -8.768894e+00 -5.775507e+00 0.000000e+00
         vertex -8.768894e+00 -5.775507e+00 8.000000e+00
      endloop
   endfacet
   facet normal 7.464884e-01 6.653985e-01 0.000000e+00
      outer loop
         vertex -6.741476e+00 -8.050000e+00 0.000000e+00
         vertex -8.768894e+00 -5.775507e+00 8.000000e+00
         vertex -6.741476e+00 -8.050000e+00 8.000000e+00
      endloop
   endfacet
   facet normal 9.061030e-01 4.230571e-01 -0.000000e+00
      outer loop
         vertex -8.768894e+00 -5.775507e+00 0.000000e+00
         vertex -1.005792e+01 -3.014681e+00 0.000000e+00
         vertex -1.005792e+01 -3.014681e+00 8.000000e+00
      endloop
   endfacet
   facet normal 9.061030e-01 4.230571e-01 0.000000e+00
      outer loop
         vertex -8.768894e+00 -5.775507e+00 0.000000e+00
         vertex -1.005792e+01 -3.014681e+00 8.000000e+00
         vertex -8.768894e+00 -5.775507e+00 8.000000e+00
      endloop
   endfacet
   facet normal 9.894182e-01 1.450917e-01 -0.000000e+00
      outer loop
         vertex -1.005792e+01 -3.014681e+00 0.000000e+00
         vertex -1.050000e+01 0.000000e+00 0.000000e+00
         vertex -1.050000e+01 0.000000e+00 8.000000e+00
      endloop
   endfacet
   facet normal 9.894182e-01 1.450917e-01 0.000000e+00
      outer loop
         vertex -1.005792e+01 -3.014681e+00 0.000000e+00
         vertex -1.050000e+01 0.000000e+00 8.000000e+00
         vertex -1.005792e+01 -3.014681e+00 8.000000e+00
      endloop
   endfacet
   facet normal 9.894182e-01 -1.450917e-01 0.000000e+00
      outer loop
         vertex -1.050000e+01 0.000000e+00 0.000000e+00
         vertex -1.005792e+01 3.014681e+00 0.000000e+00
         vertex -1.005792e+01 3.014681e+00 8.000000e+00
      endloop
   endfacet
   facet normal 9.894182e-01 -1.450917e-01 0.000000e+00
      outer loop
         vertex -1.050000e+01 0.000000e+00 0.000000e+00
         vertex -1.005792e+01 3.014681e+00 8.000000e+00
         vertex -1.050000e+01 0.000000e+00 8.000000e+00
      endloop
   endfacet
   facet normal 9.061030e-01 -4.230571e-01 0.000000e+00
      outer loop
         vertex -1.005792e+01 3.014681e+00 0.000000e+00
         vertex -8.768894e+00 5.775507e+00 0.000000e+00
         vertex -8.768894e+00 5.775507e+00 8.000000e+00
      endloop
   endfacet
   facet normal 9.061030e-01 -4.230571e-01 0.000000e+00
      outer loop
         vertex -1.005792e+01 3.014681e+00 0.000000e+00
         vertex -8.768894e+00 5.775507e+00 8.000000e+00
         vertex -1.005792e+01 3.014681e+00 8.000000e+00
      endloop
   endfacet
   facet normal 7.464884e-01 -6.653985e-01 0.000000e+00
      outer loop
         vertex -8.768894e+00 5.775507e+00 0.000000e+00
         vertex -6.741476e+00 8.050000e+00 0.000000e+00
         vertex -6.741476e+00 8.050000e+00 8.000000e+00
      endloop
   endfacet
   facet normal 7.464884e-01 -6.653985e-01 0.000000e+00
      outer loop
         vertex -8.768894e+00 5.775507e+00 0.000000e+00
         vertex -6.741476e+00 8.050000e+00 8.000000e+00
         vertex -8.768894e+00 5.775507e+00 8.000000e+00
      endloop
   endfacet
   facet normal -7.464884e-01 -6.653985e-01 0.000000e+00
      outer loop
         vertex 6.741476e+00 8.050000e+00 0.000000e+00
         vertex 8.768894e+00 5.775507e+00 0.000000e+00
         vertex 8.768894e+00 5.775507e+00 8.000000e+00
      endloop
   endfacet
   facet normal -7.464884e-01 -6.653985e-01 0.000000e+00
      outer loop
         vertex 6.741476e+00 8.050000e+00 0.000000e+00
         vertex 8.768894e+00 5.775507e+00 8.000000e+00
         vertex 6.741476e+00 8.050000e+00 8.000000e+00
      endloop
   endfacet
   facet normal -9.061030e-01 -4.230571e-01 0.000000e+00
      outer loop
         vertex 8.768894e+00 5.775507e+00 0.000000e+00
         vertex 1.005792e+01 3.014681e+00 0.000000e+00
         vertex 1.005792e+01 3.014681e+00 8.000000e+00
      endloop
   endfacet
   facet normal -9.061030e-01 -4.230571e-01 0.000000e+00
      outer loop
         vertex 8.768894e+00 5.775507e+00 0.000000e+00
         vertex 1.005792e+01 3.014681e+00 8.000000e+00
         vertex 8.768894e+00 5.775507e+00 8.000000e+00
      endloop
   endfacet
   facet normal -9.894182e-01 -1.450917e-01 0.000000e+00
      outer loop
         vertex 1.005792e+01 3.014681e+00 0.000000e+00
         vertex 1.050000e+01 -2.664535e-15 0.000000e+00
         vertex 1.050000e+01 -2.664535e-15 8.000000e+00
      endloop
   endfacet
   facet normal -9.894182e-01 -1.450917e-01 0.000000e+00
      outer loop
         vertex 1.005792e+01 3.014681e+00 0.000000e+00
         vertex 1.050000e+01 -2.664535e-15 8.000000e+00
         vertex 1.005792e+01 3.014681e+00 8.000000e+00
      endloop
   endfacet
   facet normal -9.894182e-01 1.450917e-01 0.000000e+00
      outer loop
         vertex 1.050000e+01 -2.664535e-15 0.000000e+00
         vertex 1.005792e+01 -3.014681e+00 0.000000e+00
         vertex 1.005792e+01 -3.014681e+00 8.000000e+00
      endloop
   endfacet
   facet normal -9.894182e-01 1.450917e-01 0.000000e+00
      outer loop
         vertex 1.050000e+01 -2.664535e-15 0.000000e+00
         vertex 1.005792e+01 -3.014681e+00 8.000000e+00
         vertex 1.050000e+01 -2.664535e-15 8.000000e+00
      endloop
   endfacet
   facet normal -9.061030e-01 4.230571e-01 0.000000e+00
      outer loop
         vertex 1.005792e+01 -3.014681e+00 0.000000e+00
         vertex 8.768894e+00 -5.775507e+00 0.000000e+00
         vertex 8.768894e+00 -5.775507e+00 8.000000e+00
      endloop
   endfacet
   facet normal -9.061030e-01 4.230571e-01 0.000000e+00
      outer loop
         vertex 1.005792e+01 -3.014681e+00 0.000000e+00
         vertex 8.768894e+00 -5.775507e+00 8.000000e+00
         vertex 1.005792e+01 -3.014681e+00 8.000000e+00
      endloop
   endfacet
   facet normal -7.464884e-01 6.653985e-01 0.000000e+00
      outer loop
         vertex 8.768894e+00 -5.775507e+00 0.000000e+00
         vertex 6.741476e+00 -8.050000e+00 0.000000e+00
         vertex 6.741476e+00 -8.050000e+00 8.000000e+00
      endloop
   endfacet
   facet normal -7.464884e-01 6.653985e-01 0.000000e+00
      outer loop
         vertex 8.768894e+00 -5.775507e+00 0.000000e+00
         vertex 6.741476e+00 -8.050000e+00 8.000000e+00
         vertex 8.768894e+00 -5.775507e+00 8.000000e+00
      endloop
   endfacet
   facet normal 1.000000e+00 -0.000000e+00 0.000000e+00
      outer loop
         vertex 1.850000e+01 8.050000e+00 7.000000e+00
         vertex 1.850000e+01 -1.205000e+01 7.000000e+00
         vertex 1.850000e+01 -1.205000e+01 1.000000e+00
      endloop
   endfacet
   facet normal 1.000000e+00 0.000000e+00 -0.000000e+00
      outer loop
         vertex 1.850000e+01 -1.205000e+01 1.000000e+00
         vertex 1.850000e+01 8.050000e+00 1.000000e+00
         vertex 1.850000e+01 8.050000e+00 7.000000e+00
      endloop
   endfacet
   facet normal 0.000000e+00 1.000000e+00 0.000000e+00
      outer loop
         vertex -1.335093e+01 -6.950000e+00 4.964181e+00
         vertex -1.300000e+01 -6.950000e+00 4.000000e+00
         vertex -1.335093e+01 -6.950000e+00 3.035819e+00
      endloop
   endfacet
   facet normal 0.000000e+00 1.000000e+00 0.000000e+00
      outer loop
         vertex -1.335093e+01 -6.950000e+00 3.035819e+00
         vertex -1.423953e+01 -6.950000e+00 2.522788e+00
         vertex -1.335093e+01 -6.950000e+00 4.964181e+00
      endloop
   endfacet
   facet normal -0.000000e+00 1.000000e+00 0.000000e+00
      outer loop
         vertex -1.423953e+01 -6.950000e+00 2.522788e+00
         vertex -1.525000e+01 -6.950000e+00 2.700962e+00
         vertex -1.335093e+01 -6.950000e+00 4.964181e+00
      endloop
   endfacet
   facet normal -0.000000e+00 1.000000e+00 0.000000e+00
      outer loop
         vertex -1.525000e+01 -6.950000e+00 2.700962e+00
         vertex -1.590954e+01 -6.950000e+00 3.486970e+00
         vertex -1.335093e+01 -6.950000e+00 4.964181e+00
      endloop
   endfacet
   facet normal -0.000000e+00 1.000000e+00 0.000000e+00
      outer loop
         vertex -1.590954e+01 -6.950000e+00 3.486970e+00
         vertex -1.590954e+01 -6.950000e+00 4.513030e+00
         vertex -1.335093e+01 -6.950000e+00 4.964181e+00
      endloop
   endfacet
   facet normal 0.000000e+00 1.000000e+00 0.000000e+00
      outer loop
         vertex -1.590954e+01 -6.950000e+00 4.513030e+00
         vertex -1.525000e+01 -6.950000e+00 5.299038e+00
         vertex -1.335093e+01 -6.950000e+00 4.964181e+00
      endloop
   endfacet
   facet normal 0.000000e+00 1.000000e+00 0.000000e+00
      outer loop
         vertex -1.525000e+01 -6.950000e+00 5.299038e+00
         vertex -1.423953e+01 -6.950000e+00 5.477211e+00
         vertex -1.335093e+01 -6.950000e+00 4.964181e+00
      endloop
   endfacet
   facet normal 0.000000e+00 1.000000e+00 0.000000e+00
      outer loop
         vertex 1.564907e+01 -6.950000e+00 4.964181e+00
         vertex 1.600000e+01 -6.950000e+00 4.000000e+00
         vertex 1.564907e+01 -6.950000e+00 3.035819e+00
      endloop
   endfacet
   facet normal 0.000000e+00 1.000000e+00 0.000000e+00
      outer loop
         vertex 1.564907e+01 -6.950000e+00 3.035819e+00
         vertex 1.476047e+01 -6.950000e+00 2.522788e+00
         vertex 1.564907e+01 -6.950000e+00 4.964181e+00
      endloop
   endfacet
   facet normal -0.000000e+00 1.000000e+00 0.000000e+00
      outer loop
         vertex 1.476047e+01 -6.950000e+00 2.522788e+00
         vertex 1.375000e+01 -6.950000e+00 2.700962e+00
         vertex 1.564907e+01 -6.950000e+00 4.964181e+00
      endloop
   endfacet
   facet normal -0.000000e+00 1.000000e+00 0.000000e+00
      outer loop
         vertex 1.375000e+01 -6.950000e+00 2.700962e+00
         vertex 1.309046e+01 -6.950000e+00 3.486970e+00
         vertex 1.564907e+01 -6.950000e+00 4.964181e+00
      endloop
   endfacet
   facet normal -0.000000e+00 1.000000e+00 0.000000e+00
      outer loop
         vertex 1.309046e+01 -6.950000e+00 3.486970e+00
         vertex 1.309046e+01 -6.950000e+00 4.513030e+00
         vertex 1.564907e+01 -6.950000e+00 4.964181e+00
      endloop
   endfacet
   facet normal 0.000000e+00 1.000000e+00 0.000000e+00
      outer loop
         vertex 1.309046e+01 -6.950000e+00 4.513030e+00
         vertex 1.375000e+01 -6.950000e+00 5.299038e+00
         vertex 1.564907e+01 -6.950000e+00 4.964181e+00
      endloop
   endfacet
   facet normal 0.000000e+00 1.000000e+00 0.000000e+00
      outer loop
         vertex 1.375000e+01 -6.950000e+00 5.299038e+00
         vertex 1.476047e+01 -6.950000e+00 5.477211e+00
         vertex 1.564907e+01 -6.950000e+00 4.964181e+00
      endloop
   endfacet
   facet normal 0.000000e+00 -1.000000e+00 0.000000e+00
      outer loop
         vertex -1.750000e+01 -1.305000e+01 1.000000e+00
         vertex 1.750000e+01 -1.305000e+01 1.000000e+00
         vertex 1.750000e+01 -1.305000e+01 7.000000e+00
      endloop
   endfacet
   facet normal 0.000000e+00 -1.000000e+00 0.000000e+00
      outer loop
         vertex 1.750000e+01 -1.305000e+01 7.000000e+00
         vertex -1.750000e+01 -1.305000e+01 7.000000e+00
         vertex -1.750000e+01 -1.305000e+01 1.000000e+00
      endloop
   endfacet
   facet normal 0.000000e+00 1.000000e+00 -0.000000e+00
      outer loop
         vertex 6.741476e+00 -8.050000e+00 8.000000e+00
         vertex 6.741476e+00 -8.050000e+00 0.000000e+00
         vertex -6.741476e+00 -8.050000e+00 0.000000e+00
      endloop
   endfacet
   facet normal -0.000000e+00 1.000000e+00 0.000000e+00
      outer loop
         vertex -6.741476e+00 -8.050000e+00 0.000000e+00
         vertex -6.741476e+00 -8.050000e+00 8.000000e+00
         vertex 6.741476e+00 -8.050000e+00 8.000000e+00
      endloop
   endfacet
   facet normal 0.000000e+00 -2.588190e-01 -9.659258e-01
      outer loop
         vertex 1.750000e+01 -1.255000e+01 1.339746e-01
         vertex -1.750000e+01 -1.255000e+01 1.339746e-01
         vertex -1.750000e+01 -1.205000e+01 0.000000e+00
      endloop
   endfacet
   facet normal 0.000000e+00 -2.588190e-01 -9.659258e-01
      outer loop
         vertex 1.750000e+01 -1.205000e+01 0.000000e+00
         vertex 1.750000e+01 -1.255000e+01 1.339746e-01
         vertex -1.750000e+01 -1.205000e+01 0.000000e+00
      endloop
   endfacet
   facet normal 0.000000e+00 -7.071072e-01 -7.071064e-01
      outer loop
         vertex 1.750000e+01 -1.291603e+01 5.000000e-01
         vertex -1.750000e+01 -1.291603e+01 5.000000e-01
         vertex -1.750000e+01 -1.255000e+01 1.339746e-01
      endloop
   endfacet
   facet normal 0.000000e+00 -7.071072e-01 -7.071064e-01
      outer loop
         vertex 1.750000e+01 -1.255000e+01 1.339746e-01
         vertex 1.750000e+01 -1.291603e+01 5.000000e-01
         vertex -1.750000e+01 -1.255000e+01 1.339746e-01
      endloop
   endfacet
   facet normal 0.000000e+00 -9.659256e-01 -2.588198e-01
      outer loop
         vertex 1.750000e+01 -1.305000e+01 1.000000e+00
         vertex -1.750000e+01 -1.305000e+01 1.000000e+00
         vertex -1.750000e+01 -1.291603e+01 5.000000e-01
      endloop
   endfacet
   facet normal 0.000000e+00 -9.659256e-01 -2.588198e-01
      outer loop
         vertex 1.750000e+01 -1.291603e+01 5.000000e-01
         vertex 1.750000e+01 -1.305000e+01 1.000000e+00
         vertex -1.750000e+01 -1.291603e+01 5.000000e-01
      endloop
   endfacet
   facet normal -2.588190e-01 -0.000000e+00 -9.659258e-01
      outer loop
         vertex -1.800000e+01 -1.205000e+01 1.339746e-01
         vertex -1.800000e+01 8.050000e+00 1.339746e-01
         vertex -1.750000e+01 8.050000e+00 0.000000e+00
      endloop
   endfacet
   facet normal -2.588190e-01 0.000000e+00 -9.659258e-01
      outer loop
         vertex -1.750000e+01 -1.205000e+01 0.000000e+00
         vertex -1.800000e+01 -1.205000e+01 1.339746e-01
         vertex -1.750000e+01 8.050000e+00 0.000000e+00
      endloop
   endfacet
   facet normal -7.071063e-01 -0.000000e+00 -7.071073e-01
      outer loop
         vertex -1.836603e+01 -1.205000e+01 5.000000e-01
         vertex -1.836603e+01 8.050000e+00 5.000000e-01
         vertex -1.800000e+01 8.050000e+00 1.339746e-01
      endloop
   endfacet
   facet normal -7.071063e-01 0.000000e+00 -7.071073e-01
      outer loop
         vertex -1.800000e+01 -1.205000e+01 1.339746e-01
         vertex -1.836603e+01 -1.205000e+01 5.000000e-01
         vertex -1.800000e+01 8.050000e+00 1.339746e-01
      endloop
   endfacet
   facet normal -9.659261e-01 -0.000000e+00 -2.588181e-01
      outer loop
         vertex -1.850000e+01 -1.205000e+01 1.000000e+00
         vertex -1.850000e+01 8.050000e+00 1.000000e+00
         vertex -1.836603e+01 8.050000e+00 5.000000e-01
      endloop
   endfacet
   facet normal -9.659261e-01 0.000000e+00 -2.588181e-01
      outer loop
         vertex -1.836603e+01 -1.205000e+01 5.000000e-01
         vertex -1.850000e+01 -1.205000e+01 1.000000e+00
         vertex -1.836603e+01 8.050000e+00 5.000000e-01
      endloop
   endfacet
   facet normal -6.947458e-01 -5.085900e-01 -5.085906e-01
      outer loop
         vertex -1.800000e+01 -1.280000e+01 5.669873e-01
         vertex -1.836603e+01 -1.248301e+01 7.500000e-01
         vertex -1.836603e+01 -1.230000e+01 5.669873e-01
      endloop
   endfacet
   facet normal -6.947462e-01 -5.085903e-01 -5.085899e-01
      outer loop
         vertex -1.800000e+01 -1.248301e+01 2.500000e-01
         vertex -1.800000e+01 -1.280000e+01 5.669873e-01
         vertex -1.836603e+01 -1.230000e+01 5.669873e-01
      endloop
   endfacet
   facet normal -9.636117e-01 -2.581980e-01 -6.918367e-02
      outer loop
         vertex -1.836603e+01 -1.248301e+01 7.500000e-01
         vertex -1.836603e+01 -1.255000e+01 1.000000e+00
         vertex -1.850000e+01 -1.205000e+01 1.000000e+00
      endloop
   endfacet
   facet normal -6.947457e-01 -6.947476e-01 -1.861563e-01
      outer loop
         vertex -1.836603e+01 -1.248301e+01 7.500000e-01
         vertex -1.800000e+01 -1.291603e+01 1.000000e+00
         vertex -1.836603e+01 -1.255000e+01 1.000000e+00
      endloop
   endfacet
   facet normal -2.505635e-01 -9.351127e-01 -2.505635e-01
      outer loop
         vertex -1.750000e+01 -1.291603e+01 5.000000e-01
         vertex -1.750000e+01 -1.305000e+01 1.000000e+00
         vertex -1.800000e+01 -1.291603e+01 1.000000e+00
      endloop
   endfacet
   facet normal -2.505624e-01 -6.845508e-01 -6.845500e-01
      outer loop
         vertex -1.800000e+01 -1.248301e+01 2.500000e-01
         vertex -1.750000e+01 -1.255000e+01 1.339746e-01
         vertex -1.750000e+01 -1.291603e+01 5.000000e-01
      endloop
   endfacet
   facet normal -2.505628e-01 -2.505628e-01 -9.351131e-01
      outer loop
         vertex -1.800000e+01 -1.205000e+01 1.339746e-01
         vertex -1.750000e+01 -1.205000e+01 0.000000e+00
         vertex -1.750000e+01 -1.255000e+01 1.339746e-01
      endloop
   endfacet
   facet normal -6.947461e-01 -1.861569e-01 -6.947471e-01
      outer loop
         vertex -1.836603e+01 -1.230000e+01 5.669873e-01
         vertex -1.836603e+01 -1.205000e+01 5.000000e-01
         vertex -1.800000e+01 -1.205000e+01 1.339746e-01
      endloop
   endfacet
   facet normal -9.636116e-01 -6.918391e-02 -2.581980e-01
      outer loop
         vertex -1.836603e+01 -1.230000e+01 5.669873e-01
         vertex -1.850000e+01 -1.205000e+01 1.000000e+00
         vertex -1.836603e+01 -1.205000e+01 5.000000e-01
      endloop
   endfacet
   facet normal 0.000000e+00 0.000000e+00 -0.000000e+00
      outer loop
         vertex -1.836603e+01 -1.230000e+01 5.669873e-01
         vertex -1.850000e+01 -1.205000e+01 1.000000e+00
         vertex -1.850000e+01 -1.205000e+01 1.000000e+00
      endloop
   endfacet
   facet normal 0.000000e+00 0.000000e+00 -0.000000e+00
      outer loop
         vertex -1.836603e+01 -1.248301e+01 7.500000e-01
         vertex -1.850000e+01 -1.205000e+01 1.000000e+00
         vertex -1.850000e+01 -1.205000e+01 1.000000e+00
      endloop
   endfacet
   facet normal -9.636117e-01 -1.890139e-01 -1.890141e-01
      outer loop
         vertex -1.850000e+01 -1.205000e+01 1.000000e+00
         vertex -1.836603e+01 -1.230000e+01 5.669873e-01
         vertex -1.836603e+01 -1.248301e+01 7.500000e-01
      endloop
   endfacet
   facet normal -6.947461e-01 -1.861568e-01 -6.947471e-01
      outer loop
         vertex -1.800000e+01 -1.205000e+01 1.339746e-01
         vertex -1.800000e+01 -1.248301e+01 2.500000e-01
         vertex -1.836603e+01 -1.230000e+01 5.669873e-01
      endloop
   endfacet
   facet normal -6.947457e-01 -6.947476e-01 -1.861563e-01
      outer loop
         vertex -1.800000e+01 -1.291603e+01 1.000000e+00
         vertex -1.836603e+01 -1.248301e+01 7.500000e-01
         vertex -1.800000e+01 -1.280000e+01 5.669873e-01
      endloop
   endfacet
   facet normal -2.505622e-01 -6.845507e-01 -6.845502e-01
      outer loop
         vertex -1.750000e+01 -1.291603e+01 5.000000e-01
         vertex -1.800000e+01 -1.280000e+01 5.669873e-01
         vertex -1.800000e+01 -1.248301e+01 2.500000e-01
      endloop
   endfacet
   facet normal -2.505620e-01 -9.351136e-01 -2.505620e-01
      outer loop
         vertex -1.800000e+01 -1.280000e+01 5.669873e-01
         vertex -1.750000e+01 -1.291603e+01 5.000000e-01
         vertex -1.800000e+01 -1.291603e+01 1.000000e+00
      endloop
   endfacet
   facet normal -2.505627e-01 -2.505627e-01 -9.351132e-01
      outer loop
         vertex -1.800000e+01 -1.205000e+01 1.339746e-01
         vertex -1.750000e+01 -1.255000e+01 1.339746e-01
         vertex -1.800000e+01 -1.248301e+01 2.500000e-01
      endloop
   endfacet
   facet normal -2.588198e-01 -9.659256e-01 0.000000e+00
      outer loop
         vertex -1.800000e+01 -1.291603e+01 7.000000e+00
         vertex -1.800000e+01 -1.291603e+01 1.000000e+00
         vertex -1.750000e+01 -1.305000e+01 1.000000e+00
      endloop
   endfacet
   facet normal -2.588198e-01 -9.659256e-01 0.000000e+00
      outer loop
         vertex -1.750000e+01 -1.305000e+01 7.000000e+00
         vertex -1.800000e+01 -1.291603e+01 7.000000e+00
         vertex -1.750000e+01 -1.305000e+01 1.000000e+00
      endloop
   endfacet
   facet normal -7.071059e-01 -7.071077e-01 0.000000e+00
      outer loop
         vertex -1.836603e+01 -1.255000e+01 7.000000e+00
         vertex -1.836603e+01 -1.255000e+01 1.000000e+00
         vertex -1.800000e+01 -1.291603e+01 1.000000e+00
      endloop
   endfacet
   facet normal -7.071059e-01 -7.071077e-01 0.000000e+00
      outer loop
         vertex -1.800000e+01 -1.291603e+01 7.000000e+00
         vertex -1.836603e+01 -1.255000e+01 7.000000e+00
         vertex -1.800000e+01 -1.291603e+01 1.000000e+00
      endloop
   endfacet
   facet normal -9.659261e-01 -2.588181e-01 0.000000e+00
      outer loop
         vertex -1.850000e+01 -1.205000e+01 7.000000e+00
         vertex -1.850000e+01 -1.205000e+01 1.000000e+00
         vertex -1.836603e+01 -1.255000e+01 1.000000e+00
      endloop
   endfacet
   facet normal -9.659261e-01 -2.588181e-01 0.000000e+00
      outer loop
         vertex -1.836603e+01 -1.255000e+01 7.000000e+00
         vertex -1.850000e+01 -1.205000e+01 7.000000e+00
         vertex -1.836603e+01 -1.255000e+01 1.000000e+00
      endloop
   endfacet
   facet normal -2.588190e-01 0.000000e+00 9.659258e-01
      outer loop
         vertex -1.750000e+01 8.050000e+00 8.000000e+00
         vertex -1.800000e+01 8.050000e+00 7.866025e+00
         vertex -1.800000e+01 -1.205000e+01 7.866025e+00
      endloop
   endfacet
   facet normal -2.588190e-01 0.000000e+00 9.659258e-01
      outer loop
         vertex -1.750000e+01 8.050000e+00 8.000000e+00
         vertex -1.800000e+01 -1.205000e+01 7.866025e+00
         vertex -1.750000e+01 -1.205000e+01 8.000000e+00
      endloop
   endfacet
   facet normal -7.071063e-01 0.000000e+00 7.071072e-01
      outer loop
         vertex -1.800000e+01 8.050000e+00 7.866025e+00
         vertex -1.836603e+01 8.050000e+00 7.500000e+00
         vertex -1.836603e+01 -1.205000e+01 7.500000e+00
      endloop
   endfacet
   facet normal -7.071063e-01 0.000000e+00 7.071072e-01
      outer loop
         vertex -1.800000e+01 8.050000e+00 7.866025e+00
         vertex -1.836603e+01 -1.205000e+01 7.500000e+00
         vertex -1.800000e+01 -1.205000e+01 7.866025e+00
      endloop
   endfacet
   facet normal -9.659261e-01 0.000000e+00 2.588181e-01
      outer loop
         vertex -1.836603e+01 8.050000e+00 7.500000e+00
         vertex -1.850000e+01 8.050000e+00 7.000000e+00
         vertex -1.850000e+01 -1.205000e+01 7.000000e+00
      endloop
   endfacet
   facet normal -9.659261e-01 0.000000e+00 2.588181e-01
      outer loop
         vertex -1.836603e+01 8.050000e+00 7.500000e+00
         vertex -1.850000e+01 -1.205000e+01 7.000000e+00
         vertex -1.836603e+01 -1.205000e+01 7.500000e+00
      endloop
   endfacet
   facet normal -5.085918e-01 -5.085891e-01 6.947456e-01
      outer loop
         vertex -1.793301e+01 -1.280000e+01 7.500000e+00
         vertex -1.775000e+01 -1.248301e+01 7.866025e+00
         vertex -1.793301e+01 -1.230000e+01 7.866025e+00
      endloop
   endfacet
   facet normal -5.085887e-01 -5.085902e-01 6.947471e-01
      outer loop
         vertex -1.825000e+01 -1.248301e+01 7.500000e+00
         vertex -1.793301e+01 -1.280000e+01 7.500000e+00
         vertex -1.793301e+01 -1.230000e+01 7.866025e+00
      endloop
   endfacet
   facet normal -6.918390e-02 -2.581988e-01 9.636114e-01
      outer loop
         vertex -1.775000e+01 -1.248301e+01 7.866025e+00
         vertex -1.750000e+01 -1.255000e+01 7.866025e+00
         vertex -1.750000e+01 -1.205000e+01 8.000000e+00
      endloop
   endfacet
   facet normal -1.861562e-01 -6.947471e-01 6.947462e-01
      outer loop
         vertex -1.775000e+01 -1.248301e+01 7.866025e+00
         vertex -1.750000e+01 -1.291603e+01 7.500000e+00
         vertex -1.750000e+01 -1.255000e+01 7.866025e+00
      endloop
   endfacet
   facet normal -2.505635e-01 -9.351127e-01 2.505635e-01
      outer loop
         vertex -1.800000e+01 -1.291603e+01 7.000000e+00
         vertex -1.750000e+01 -1.305000e+01 7.000000e+00
         vertex -1.750000e+01 -1.291603e+01 7.500000e+00
      endloop
   endfacet
   facet normal -6.845494e-01 -6.845512e-01 2.505631e-01
      outer loop
         vertex -1.825000e+01 -1.248301e+01 7.500000e+00
         vertex -1.836603e+01 -1.255000e+01 7.000000e+00
         vertex -1.800000e+01 -1.291603e+01 7.000000e+00
      endloop
   endfacet
   facet normal -9.351136e-01 -2.505620e-01 2.505620e-01
      outer loop
         vertex -1.836603e+01 -1.205000e+01 7.500000e+00
         vertex -1.850000e+01 -1.205000e+01 7.000000e+00
         vertex -1.836603e+01 -1.255000e+01 7.000000e+00
      endloop
   endfacet
   facet normal -6.947459e-01 -1.861585e-01 6.947468e-01
      outer loop
         vertex -1.793301e+01 -1.230000e+01 7.866025e+00
         vertex -1.800000e+01 -1.205000e+01 7.866025e+00
         vertex -1.836603e+01 -1.205000e+01 7.500000e+00
      endloop
   endfacet
   facet normal -2.581988e-01 -6.918488e-02 9.636113e-01
      outer loop
         vertex -1.793301e+01 -1.230000e+01 7.866025e+00
         vertex -1.750000e+01 -1.205000e+01 8.000000e+00
         vertex -1.800000e+01 -1.205000e+01 7.866025e+00
      endloop
   endfacet
   facet normal 0.000000e+00 0.000000e+00 0.000000e+00
      outer loop
         vertex -1.793301e+01 -1.230000e+01 7.866025e+00
         vertex -1.750000e+01 -1.205000e+01 8.000000e+00
         vertex -1.750000e+01 -1.205000e+01 8.000000e+00
      endloop
   endfacet
   facet normal 0.000000e+00 0.000000e+00 0.000000e+00
      outer loop
         vertex -1.775000e+01 -1.248301e+01 7.866025e+00
         vertex -1.750000e+01 -1.205000e+01 8.000000e+00
         vertex -1.750000e+01 -1.205000e+01 8.000000e+00
      endloop
   endfacet
   facet normal -1.890152e-01 -1.890142e-01 9.636114e-01
      outer loop
         vertex -1.750000e+01 -1.205000e+01 8.000000e+00
         vertex -1.793301e+01 -1.230000e+01 7.866025e+00
         vertex -1.775000e+01 -1.248301e+01 7.866025e+00
      endloop
   endfacet
   facet normal -6.947457e-01 -1.861573e-01 6.947474e-01
      outer loop
         vertex -1.836603e+01 -1.205000e+01 7.500000e+00
         vertex -1.825000e+01 -1.248301e+01 7.500000e+00
         vertex -1.793301e+01 -1.230000e+01 7.866025e+00
      endloop
   endfacet
   facet normal -1.861566e-01 -6.947472e-01 6.947461e-01
      outer loop
         vertex -1.750000e+01 -1.291603e+01 7.500000e+00
         vertex -1.775000e+01 -1.248301e+01 7.866025e+00
         vertex -1.793301e+01 -1.280000e+01 7.500000e+00
      endloop
   endfacet
   facet normal -6.845492e-01 -6.845513e-01 2.505632e-01
      outer loop
         vertex -1.800000e+01 -1.291603e+01 7.000000e+00
         vertex -1.793301e+01 -1.280000e+01 7.500000e+00
         vertex -1.825000e+01 -1.248301e+01 7.500000e+00
      endloop
   endfacet
   facet normal -2.505623e-01 -9.351134e-01 2.505623e-01
      outer loop
         vertex -1.793301e+01 -1.280000e+01 7.500000e+00
         vertex -1.800000e+01 -1.291603e+01 7.000000e+00
         vertex -1.750000e+01 -1.291603e+01 7.500000e+00
      endloop
   endfacet
   facet normal -9.351127e-01 -2.505637e-01 2.505637e-01
      outer loop
         vertex -1.836603e+01 -1.205000e+01 7.500000e+00
         vertex -1.836603e+01 -1.255000e+01 7.000000e+00
         vertex -1.825000e+01 -1.248301e+01 7.500000e+00
      endloop
   endfacet
   facet normal 0.000000e+00 -2.588190e-01 9.659258e-01
      outer loop
         vertex -1.750000e+01 -1.205000e+01 8.000000e+00
         vertex -1.750000e+01 -1.255000e+01 7.866025e+00
         vertex 1.750000e+01 -1.255000e+01 7.866025e+00
      endloop
   endfacet
   facet normal 0.000000e+00 -2.588190e-01 9.659258e-01
      outer loop
         vertex -1.750000e+01 -1.205000e+01 8.000000e+00
         vertex 1.750000e+01 -1.255000e+01 7.866025e+00
         vertex 1.750000e+01 -1.205000e+01 8.000000e+00
      endloop
   endfacet
   facet normal 0.000000e+00 -7.071072e-01 7.071063e-01
      outer loop
         vertex -1.750000e+01 -1.255000e+01 7.866025e+00
         vertex -1.750000e+01 -1.291603e+01 7.500000e+00
         vertex 1.750000e+01 -1.291603e+01 7.500000e+00
      endloop
   endfacet
   facet normal 0.000000e+00 -7.071072e-01 7.071063e-01
      outer loop
         vertex -1.750000e+01 -1.255000e+01 7.866025e+00
         vertex 1.750000e+01 -1.291603e+01 7.500000e+00
         vertex 1.750000e+01 -1.255000e+01 7.866025e+00
      endloop
   endfacet
   facet normal 0.000000e+00 -9.659256e-01 2.588198e-01
      outer loop
         vertex -1.750000e+01 -1.291603e+01 7.500000e+00
         vertex -1.750000e+01 -1.305000e+01 7.000000e+00
         vertex 1.750000e+01 -1.305000e+01 7.000000e+00
      endloop
   endfacet
   facet normal 0.000000e+00 -9.659256e-01 2.588198e-01
      outer loop
         vertex -1.750000e+01 -1.291603e+01 7.500000e+00
         vertex 1.750000e+01 -1.305000e+01 7.000000e+00
         vertex 1.750000e+01 -1.291603e+01 7.500000e+00
      endloop
   endfacet
   facet normal 2.588190e-01 -0.000000e+00 9.659258e-01
      outer loop
         vertex 1.750000e+01 -1.205000e+01 8.000000e+00
         vertex 1.800000e+01 -1.205000e+01 7.866025e+00
         vertex 1.800000e+01 8.050000e+00 7.866025e+00
      endloop
   endfacet
   facet normal 2.588190e-01 0.000000e+00 9.659258e-01
      outer loop
         vertex 1.750000e+01 -1.205000e+01 8.000000e+00
         vertex 1.800000e+01 8.050000e+00 7.866025e+00
         vertex 1.750000e+01 8.050000e+00 8.000000e+00
      endloop
   endfacet
   facet normal 7.071063e-01 -0.000000e+00 7.071072e-01
      outer loop
         vertex 1.800000e+01 -1.205000e+01 7.866025e+00
         vertex 1.836603e+01 -1.205000e+01 7.500000e+00
         vertex 1.836603e+01 8.050000e+00 7.500000e+00
      endloop
   endfacet
   facet normal 7.071063e-01 0.000000e+00 7.071072e-01
      outer loop
         vertex 1.800000e+01 -1.205000e+01 7.866025e+00
         vertex 1.836603e+01 8.050000e+00 7.500000e+00
         vertex 1.800000e+01 8.050000e+00 7.866025e+00
      endloop
   endfacet
   facet normal 9.659261e-01 -0.000000e+00 2.588181e-01
      outer loop
         vertex 1.836603e+01 -1.205000e+01 7.500000e+00
         vertex 1.850000e+01 -1.205000e+01 7.000000e+00
         vertex 1.850000e+01 8.050000e+00 7.000000e+00
      endloop
   endfacet
   facet normal 9.659261e-01 0.000000e+00 2.588181e-01
      outer loop
         vertex 1.836603e+01 -1.205000e+01 7.500000e+00
         vertex 1.850000e+01 8.050000e+00 7.000000e+00
         vertex 1.836603e+01 8.050000e+00 7.500000e+00
      endloop
   endfacet
   facet normal 5.085894e-01 -5.085910e-01 6.947460e-01
      outer loop
         vertex 1.775000e+01 -1.248301e+01 7.866025e+00
         vertex 1.793301e+01 -1.280000e+01 7.500000e+00
         vertex 1.825000e+01 -1.248301e+01 7.500000e+00
      endloop
   endfacet
   facet normal 5.085905e-01 -5.085879e-01 6.947475e-01
      outer loop
         vertex 1.793301e+01 -1.230000e+01 7.866025e+00
         vertex 1.775000e+01 -1.248301e+01 7.866025e+00
         vertex 1.825000e+01 -1.248301e+01 7.500000e+00
      endloop
   endfacet
   facet normal 0.000000e+00 0.000000e+00 -0.000000e+00
      outer loop
         vertex 1.775000e+01 -1.248301e+01 7.866025e+00
         vertex 1.750000e+01 -1.205000e+01 8.000000e+00
         vertex 1.750000e+01 -1.205000e+01 8.000000e+00
      endloop
   endfacet
   facet normal 0.000000e+00 0.000000e+00 -0.000000e+00
      outer loop
         vertex 1.793301e+01 -1.230000e+01 7.866025e+00
         vertex 1.750000e+01 -1.205000e+01 8.000000e+00
         vertex 1.750000e+01 -1.205000e+01 8.000000e+00
      endloop
   endfacet
   facet normal 2.581988e-01 -6.918488e-02 9.636113e-01
      outer loop
         vertex 1.793301e+01 -1.230000e+01 7.866025e+00
         vertex 1.800000e+01 -1.205000e+01 7.866025e+00
         vertex 1.750000e+01 -1.205000e+01 8.000000e+00
      endloop
   endfacet
   facet normal 6.947461e-01 -1.861574e-01 6.947470e-01
      outer loop
         vertex 1.825000e+01 -1.248301e+01 7.500000e+00
         vertex 1.836603e+01 -1.205000e+01 7.500000e+00
         vertex 1.800000e+01 -1.205000e+01 7.866025e+00
      endloop
   endfacet
   facet normal 9.351136e-01 -2.505620e-01 2.505620e-01
      outer loop
         vertex 1.836603e+01 -1.255000e+01 7.000000e+00
         vertex 1.850000e+01 -1.205000e+01 7.000000e+00
         vertex 1.836603e+01 -1.205000e+01 7.500000e+00
      endloop
   endfacet
   facet normal 6.845494e-01 -6.845512e-01 2.505631e-01
      outer loop
         vertex 1.825000e+01 -1.248301e+01 7.500000e+00
         vertex 1.800000e+01 -1.291603e+01 7.000000e+00
         vertex 1.836603e+01 -1.255000e+01 7.000000e+00
      endloop
   endfacet
   facet normal 2.505635e-01 -9.351127e-01 2.505635e-01
      outer loop
         vertex 1.750000e+01 -1.291603e+01 7.500000e+00
         vertex 1.750000e+01 -1.305000e+01 7.000000e+00
         vertex 1.800000e+01 -1.291603e+01 7.000000e+00
      endloop
   endfacet
   facet normal 1.861565e-01 -6.947471e-01 6.947462e-01
      outer loop
         vertex 1.793301e+01 -1.280000e+01 7.500000e+00
         vertex 1.750000e+01 -1.255000e+01 7.866025e+00
         vertex 1.750000e+01 -1.291603e+01 7.500000e+00
      endloop
   endfacet
   facet normal 6.918390e-02 -2.581988e-01 9.636114e-01
      outer loop
         vertex 1.775000e+01 -1.248301e+01 7.866025e+00
         vertex 1.750000e+01 -1.205000e+01 8.000000e+00
         vertex 1.750000e+01 -1.255000e+01 7.866025e+00
      endloop
   endfacet
   facet normal 6.845492e-01 -6.845513e-01 2.505632e-01
      outer loop
         vertex 1.800000e+01 -1.291603e+01 7.000000e+00
         vertex 1.825000e+01 -1.248301e+01 7.500000e+00
         vertex 1.793301e+01 -1.280000e+01 7.500000e+00
      endloop
   endfacet
   facet normal 6.947452e-01 -1.861583e-01 6.947475e-01
      outer loop
         vertex 1.800000e+01 -1.205000e+01 7.866025e+00
         vertex 1.793301e+01 -1.230000e+01 7.866025e+00
         vertex 1.825000e+01 -1.248301e+01 7.500000e+00
      endloop
   endfacet
   facet normal 1.861563e-01 -6.947473e-01 6.947460e-01
      outer loop
         vertex 1.750000e+01 -1.255000e+01 7.866025e+00
         vertex 1.793301e+01 -1.280000e+01 7.500000e+00
         vertex 1.775000e+01 -1.248301e+01 7.866025e+00
      endloop
   endfacet
   facet normal 1.890152e-01 -1.890142e-01 9.636114e-01
      outer loop
         vertex 1.750000e+01 -1.205000e+01 8.000000e+00
         vertex 1.775000e+01 -1.248301e+01 7.866025e+00
         vertex 1.793301e+01 -1.230000e+01 7.866025e+00
      endloop
   endfacet
   facet normal 9.351127e-01 -2.505637e-01 2.505637e-01
      outer loop
         vertex 1.836603e+01 -1.255000e+01 7.000000e+00
         vertex 1.836603e+01 -1.205000e+01 7.500000e+00
         vertex 1.825000e+01 -1.248301e+01 7.500000e+00
      endloop
   endfacet
   facet normal 2.505623e-01 -9.351134e-01 2.505623e-01
      outer loop
         vertex 1.793301e+01 -1.280000e+01 7.500000e+00
         vertex 1.750000e+01 -1.291603e+01 7.500000e+00
         vertex 1.800000e+01 -1.291603e+01 7.000000e+00
      endloop
   endfacet
   facet normal 9.659261e-01 -2.588181e-01 0.000000e+00
      outer loop
         vertex 1.836603e+01 -1.255000e+01 7.000000e+00
         vertex 1.836603e+01 -1.255000e+01 1.000000e+00
         vertex 1.850000e+01 -1.205000e+01 1.000000e+00
      endloop
   endfacet
   facet normal 9.659261e-01 -2.588181e-01 0.000000e+00
      outer loop
         vertex 1.850000e+01 -1.205000e+01 7.000000e+00
         vertex 1.836603e+01 -1.255000e+01 7.000000e+00
         vertex 1.850000e+01 -1.205000e+01 1.000000e+00
      endloop
   endfacet
   facet normal 7.071059e-01 -7.071077e-01 0.000000e+00
      outer loop
         vertex 1.800000e+01 -1.291603e+01 7.000000e+00
         vertex 1.800000e+01 -1.291603e+01 1.000000e+00
         vertex 1.836603e+01 -1.255000e+01 1.000000e+00
      endloop
   endfacet
   facet normal 7.071059e-01 -7.071077e-01 0.000000e+00
      outer loop
         vertex 1.836603e+01 -1.255000e+01 7.000000e+00
         vertex 1.800000e+01 -1.291603e+01 7.000000e+00
         vertex 1.836603e+01 -1.255000e+01 1.000000e+00
      endloop
   endfacet
   facet normal 2.588198e-01 -9.659256e-01 0.000000e+00
      outer loop
         vertex 1.750000e+01 -1.305000e+01 7.000000e+00
         vertex 1.750000e+01 -1.305000e+01 1.000000e+00
         vertex 1.800000e+01 -1.291603e+01 1.000000e+00
      endloop
   endfacet
   facet normal 2.588198e-01 -9.659256e-01 0.000000e+00
      outer loop
         vertex 1.800000e+01 -1.291603e+01 7.000000e+00
         vertex 1.750000e+01 -1.305000e+01 7.000000e+00
         vertex 1.800000e+01 -1.291603e+01 1.000000e+00
      endloop
   endfacet
   facet normal 6.947463e-01 -5.085897e-01 -5.085903e-01
      outer loop
         vertex 1.800000e+01 -1.248301e+01 2.500000e-01
         vertex 1.836603e+01 -1.230000e+01 5.669873e-01
         vertex 1.836603e+01 -1.248301e+01 7.500000e-01
      endloop
   endfacet
   facet normal 6.947459e-01 -5.085904e-01 -5.085901e-01
      outer loop
         vertex 1.800000e+01 -1.280000e+01 5.669873e-01
         vertex 1.800000e+01 -1.248301e+01 2.500000e-01
         vertex 1.836603e+01 -1.248301e+01 7.500000e-01
      endloop
   endfacet
   facet normal 9.636116e-01 -6.918391e-02 -2.581980e-01
      outer loop
         vertex 1.836603e+01 -1.230000e+01 5.669873e-01
         vertex 1.836603e+01 -1.205000e+01 5.000000e-01
         vertex 1.850000e+01 -1.205000e+01 1.000000e+00
      endloop
   endfacet
   facet normal 6.947461e-01 -1.861569e-01 -6.947471e-01
      outer loop
         vertex 1.836603e+01 -1.230000e+01 5.669873e-01
         vertex 1.800000e+01 -1.205000e+01 1.339746e-01
         vertex 1.836603e+01 -1.205000e+01 5.000000e-01
      endloop
   endfacet
   facet normal 2.505628e-01 -2.505628e-01 -9.351131e-01
      outer loop
         vertex 1.750000e+01 -1.255000e+01 1.339746e-01
         vertex 1.750000e+01 -1.205000e+01 0.000000e+00
         vertex 1.800000e+01 -1.205000e+01 1.339746e-01
      endloop
   endfacet
   facet normal 2.505623e-01 -6.845508e-01 -6.845500e-01
      outer loop
         vertex 1.800000e+01 -1.280000e+01 5.669873e-01
         vertex 1.750000e+01 -1.291603e+01 5.000000e-01
         vertex 1.750000e+01 -1.255000e+01 1.339746e-01
      endloop
   endfacet
   facet normal 2.505635e-01 -9.351127e-01 -2.505635e-01
      outer loop
         vertex 1.800000e+01 -1.291603e+01 1.000000e+00
         vertex 1.750000e+01 -1.305000e+01 1.000000e+00
         vertex 1.750000e+01 -1.291603e+01 5.000000e-01
      endloop
   endfacet
   facet normal 6.947457e-01 -6.947476e-01 -1.861563e-01
      outer loop
         vertex 1.836603e+01 -1.248301e+01 7.500000e-01
         vertex 1.836603e+01 -1.255000e+01 1.000000e+00
         vertex 1.800000e+01 -1.291603e+01 1.000000e+00
      endloop
   endfacet
   facet normal 9.636117e-01 -2.581980e-01 -6.918367e-02
      outer loop
         vertex 1.836603e+01 -1.248301e+01 7.500000e-01
         vertex 1.850000e+01 -1.205000e+01 1.000000e+00
         vertex 1.836603e+01 -1.255000e+01 1.000000e+00
      endloop
   endfacet
   facet normal 0.000000e+00 0.000000e+00 0.000000e+00
      outer loop
         vertex 1.836603e+01 -1.248301e+01 7.500000e-01
         vertex 1.850000e+01 -1.205000e+01 1.000000e+00
         vertex 1.850000e+01 -1.205000e+01 1.000000e+00
      endloop
   endfacet
   facet normal 0.000000e+00 0.000000e+00 0.000000e+00
      outer loop
         vertex 1.836603e+01 -1.230000e+01 5.669873e-01
         vertex 1.850000e+01 -1.205000e+01 1.000000e+00
         vertex 1.850000e+01 -1.205000e+01 1.000000e+00
      endloop
   endfacet
   facet normal 9.636117e-01 -1.890139e-01 -1.890141e-01
      outer loop
         vertex 1.850000e+01 -1.205000e+01 1.000000e+00
         vertex 1.836603e+01 -1.248301e+01 7.500000e-01
         vertex 1.836603e+01 -1.230000e+01 5.669873e-01
      endloop
   endfacet
   facet normal 6.947457e-01 -6.947476e-01 -1.861563e-01
      outer loop
         vertex 1.800000e+01 -1.291603e+01 1.000000e+00
         vertex 1.800000e+01 -1.280000e+01 5.669873e-01
         vertex 1.836603e+01 -1.248301e+01 7.500000e-01
      endloop
   endfacet
   facet normal 6.947461e-01 -1.861568e-01 -6.947471e-01
      outer loop
         vertex 1.800000e+01 -1.205000e+01 1.339746e-01
         vertex 1.836603e+01 -1.230000e+01 5.669873e-01
         vertex 1.800000e+01 -1.248301e+01 2.500000e-01
      endloop
   endfacet
   facet normal 2.505624e-01 -6.845506e-01 -6.845501e-01
      outer loop
         vertex 1.750000e+01 -1.255000e+01 1.339746e-01
         vertex 1.800000e+01 -1.248301e+01 2.500000e-01
         vertex 1.800000e+01 -1.280000e+01 5.669873e-01
      endloop
   endfacet
   facet normal 2.505627e-01 -2.505627e-01 -9.351132e-01
      outer loop
         vertex 1.800000e+01 -1.248301e+01 2.500000e-01
         vertex 1.750000e+01 -1.255000e+01 1.339746e-01
         vertex 1.800000e+01 -1.205000e+01 1.339746e-01
      endloop
   endfacet
   facet normal 2.505620e-01 -9.351136e-01 -2.505620e-01
      outer loop
         vertex 1.800000e+01 -1.291603e+01 1.000000e+00
         vertex 1.750000e+01 -1.291603e+01 5.000000e-01
         vertex 1.800000e+01 -1.280000e+01 5.669873e-01
      endloop
   endfacet
   facet normal 2.588190e-01 0.000000e+00 -9.659258e-01
      outer loop
         vertex 1.800000e+01 8.050000e+00 1.339746e-01
         vertex 1.800000e+01 -1.205000e+01 1.339746e-01
         vertex 1.750000e+01 -1.205000e+01 0.000000e+00
      endloop
   endfacet
   facet normal 2.588190e-01 0.000000e+00 -9.659258e-01
      outer loop
         vertex 1.750000e+01 8.050000e+00 0.000000e+00
         vertex 1.800000e+01 8.050000e+00 1.339746e-01
         vertex 1.750000e+01 -1.205000e+01 0.000000e+00
      endloop
   endfacet
   facet normal 7.071063e-01 0.000000e+00 -7.071073e-01
      outer loop
         vertex 1.836603e+01 8.050000e+00 5.000000e-01
         vertex 1.836603e+01 -1.205000e+01 5.000000e-01
         vertex 1.800000e+01 -1.205000e+01 1.339746e-01
      endloop
   endfacet
   facet normal 7.071063e-01 0.000000e+00 -7.071073e-01
      outer loop
         vertex 1.800000e+01 8.050000e+00 1.339746e-01
         vertex 1.836603e+01 8.050000e+00 5.000000e-01
         vertex 1.800000e+01 -1.205000e+01 1.339746e-01
      endloop
   endfacet
   facet normal 9.659261e-01 0.000000e+00 -2.588181e-01
      outer loop
         vertex 1.850000e+01 8.050000e+00 1.000000e+00
         vertex 1.850000e+01 -1.205000e+01 1.000000e+00
         vertex 1.836603e+01 -1.205000e+01 5.000000e-01
      endloop
   endfacet
   facet normal 9.659261e-01 0.000000e+00 -2.588181e-01
      outer loop
         vertex 1.836603e+01 8.050000e+00 5.000000e-01
         vertex 1.850000e+01 8.050000e+00 1.000000e+00
         vertex 1.836603e+01 -1.205000e+01 5.000000e-01
      endloop
   endfacet
endsolid
